<svg xmlns="http://www.w3.org/2000/svg" aria-hidden="true" style="position:absolute;width:0;height:0;overflow:hidden">
	<defs>
		<!-- gear-skills -->
		<symbol id="icon-gear"  viewBox="0 0 1219 1280">
			<path d="M582.1 75c-10.1 23.3-10.4 24.4-13.3 40.2-1.8 10.5-2.8 18.7-2.6 23 .2 3.8.1 6.8-.2 6.8-.3 0-11.1 1.3-24 2.9-12.9 1.6-23.6 2.9-23.7 2.7-.1-.1-.9-3.7-1.8-8.1-.9-4.4-2.6-9.6-3.7-11.5-1.1-1.9-4-7.9-6.4-13.3-3.6-8.2-12.2-21.5-19.9-30.9-.7-.9-4.6-6-8.6-11.3-6.5-8.6-7.5-9.5-9.8-9-1.4.3-9.1 2.2-17.1 4.3l-14.5 3.7-3.7 25c-3.1 20.8-3.6 26.6-3.1 34.4l.6 9.3-2.4-1.2c-1.3-.7-7.1-4-12.9-7.3-16.4-9.3-17.9-10.1-15-8 1.3 1 3.2 2.5 4.1 3.5 1 .9 2.1 1.3 2.5 1 .4-.4.4-.2 0 .5-.5.9-1.6.6-4.4-.9-7-4-1.7-.1 13.5 10l15.2 10.1.6 4.8c.3 2.7 1.5 7.2 2.6 10.2 1.1 3 1.8 5.6 1.6 5.8-.7.6-45 18.3-45.3 18-.2-.1-1.2-2.4-2.4-5.1-1.1-2.7-7-11.1-13.1-18.7-10.4-13.1-11.9-14.5-30.7-29-10.8-8.4-20.1-15.5-20.7-15.9-1.4-1.1-29.9 15.3-30.3 17.5-.2.9.8 12.4 2.2 25.4l2.7 23.6 6.1 17c3.4 9.3 7.6 19.3 9.4 22.1l3.2 5-18.9 14.2c-10.4 7.8-19.3 14.3-19.7 14.4-.5.2-2.6-1.7-4.6-4.2-2.1-2.4-10-8.9-17.6-14.5-13-9.5-15.1-10.6-38-20.4l-24.2-10.4-12.4 12.4-12.4 12.4 9.8 24.5c5.4 13.5 11.3 26.7 13 29.4 1.8 2.8 3.2 5.4 3.2 5.9s2.1 4.7 4.6 9.3c3.8 7 4.8 8.2 5.8 7 .9-1.3 1.9-.7 6.4 3.4l5.3 4.9-14.6 18.6c-8.1 10.1-15 18.7-15.4 19-.5.2-2.7-.9-5.1-2.6-2.3-1.7-11.5-5.9-20.5-9.4-16.4-6.4-16.4-6.4-41.6-10-13.9-2-25.8-3.4-26.4-3.1-1.1.4-2.7 2.9-14.1 22.2l-4.2 7 5.9 7.9c3.3 4.3 5.9 8.7 5.9 9.6 0 2.2 7.8 15.5 14.8 25.4 6.4 9.1 18.9 23.3 24 27.3l4 3.2 1.5-4.2c1.6-4.8 1.4-4.7 7.9-1.9l4.6 2-9.5 22.3c-5.2 12.3-9.6 22.4-9.8 22.6-.1.1-2.7-.6-5.6-1.7-3.3-1.3-12.1-2.8-22.9-3.9l-17.5-1.9-25.3 3.1c-19.1 2.3-25.5 3.5-26.2 4.6-1.7 3.2-9.1 32.3-8.3 33 .4.3 3 2.4 5.6 4.5l4.8 3.8-.7 5.7-.6 5.7 9.8 8c22 17.6 32 24.6 45.3 31.3 9.1 4.5 8.8 4.7 9.8-5.8l.6-6.3 4.1.7c2.3.3 4.2.7 4.3.8.1.1-1.3 10.7-3.2 23.6-1.9 12.9-3.5 23.9-3.5 24.4s-2.5.6-5.5.2c-3.7-.4-11 .2-22.7 1.9-17.2 2.6-17.4 2.7-41.5 12.3C6.7 627.3 1 630 .6 631.5c-.3 1.1-.6 9-.6 17.6v15.7l4 1.6c3.6 1.4 4 1.9 4.1 5.3 0 2.1.6 6 1.2 8.8l1.2 4.9 10.5 4.8c18 8.1 35.1 14.6 45.5 17.2 12.3 3.1 23.4 4.6 24.2 3.3.3-.5.2-5.1-.1-10.3-.7-9-.6-9.4 1.3-9.4 1.2 0 2.1.3 2.1.7.1.5 1.3 11.1 2.9 23.8 1.8 14.5 2.5 23.2 1.9 23.6-.6.4-3.1.9-5.7 1.2-2.6.3-11.6 3.6-20.1 7.3-14.7 6.4-16.6 7.6-36.9 22.6-21 15.8-21.3 16-20.8 19.1.4 1.8 2.2 9.3 4.2 16.7 2.5 9.6 4.1 13.9 5.5 14.9 1.1.7 2 2.3 2 3.6 0 1.2 1.4 4.9 3 8.2l3 6 7.3 2.1c27.1 7.8 59.9 9.4 81.2 3.8l5-1.3-.2-4.4c-.2-3.8.7-2.1 6.2 11.5 3.6 8.8 6.4 16.1 6.2 16.2-.1.2-2.4 1.2-5.1 2.4-2.7 1.1-11.1 7-18.8 13.1-13.2 10.6-14.6 12-29 30.8-8.3 10.8-15.5 20-15.9 20.6-.4.5 2.3 6.4 6 13.1 4.6 8.1 7 13.6 7.4 16.9.8 5.7 4.1 11.6 9.1 16.5l3.6 3.4 13.3-.1c29.8-.4 62.4-8.8 79-20.5l2.7-1.9 2.7 3.2c2.6 3.1 2.8 3.1 3.3 1 .4-1.9 1.2-1.2 5.8 4.9 2.9 3.9 5.5 7.7 5.8 8.4.3.8-1.4 3.1-3.9 5.2-2.4 2.2-9 10-14.5 17.4-9.6 12.9-10.4 14.5-20.1 37.2-5.6 13-10.1 24.1-10.1 24.5 0 .5 3.2 4 7 7.8 6.6 6.5 7 7.2 7 11.5.1 8.3 6.4 17.7 15.4 22.5 3.2 1.8 4.1 1.8 9.8.6 16.2-3.3 38.7-12.8 54.1-22.7 8.6-5.6 22.3-16.8 23.8-19.5.5-1 1.4-1.9 2-1.9.5 0 4 2 7.6 4.5 3.7 2.4 7 4.2 7.5 3.9.4-.3.8-2.3.8-4.5 0-2.1.2-3.9.5-3.9.8 0 10.9 8.1 11.3 8.9.1.4-1.1 2.6-2.8 4.9-1.6 2.3-5.9 11.4-9.4 20.3l-6.5 16.2-3.6 26c-3.2 22.8-3.4 26.3-2.2 27.2.9.5 3.6 2.2 6.1 3.7 3.7 2.2 4.6 3.3 4.6 5.6 0 4.9 2.8 12.5 6 16.4 3 3.6 12.6 9 18.1 10.2 2.1.4 5-.8 13.1-5.7 14.3-8.6 25.4-17.5 37.3-29.8 8.3-8.6 21.3-25.9 22.7-30.1.4-1.2 8.6 1.1 18.7 5.1 2.9 1.2 5.6 2 5.8 1.7.3-.2.7-3.2 1-6.5.3-3.4 1-6.1 1.5-6.1.7 0 6.6 2.7 7.5 3.4.2.1-.6 2.5-1.7 5.3-1.9 5-5 29.6-5 39.6 0 4.3 4 40.2 5.6 49.4.4 2.6 1.1 3.4 3.7 4.1 2.8.7 3.5 1.6 5.3 6.9 5.2 14.9 13.5 21.3 27.9 21.3h5.3l10.3-10.8c20.4-21.3 33.9-44.4 39.9-68.1l1.2-4.4 9.7.6c9.1.6 18.1 2 22.4 3.3 1.7.5 1.8-.1 1.5-8.5-.3-9-.3-9.1 2.1-9.1 2.3 0 2.4.2 1.8 5.8-.4 3.8.2 11.2 2 22.7 2.5 16.6 2.8 17.5 12.1 40.8 10.1 25.4 15.7 35.6 23.4 42.1 6.9 6 16 7.8 26.9 5.5l5.1-1.1 3.5-7.7c15.7-34.2 22.3-57 22.3-77.1v-9.8l9.3-1.8c11.6-2.4 29.8-2.6 34.1-.4 2.3 1.2 3.9 3.5 6.8 10.2 2 4.8 5.3 11 7.3 13.9 1.9 2.8 3.5 5.9 3.5 6.8 0 2.3 13.7 24.7 20 32.6 9.5 12 20 17.4 31.5 16.2 6.6-.7 16.4-5.2 17.4-8.1 1.4-3.5 6.1-38.3 6.7-49.6.7-11.6-.7-27.2-3.2-36.5-.9-3.3-1.8-6.9-2.1-8-.4-1.7 1.1-2.8 8.9-6.7 28.9-14.3 42.9-11.3 54.1 11.6 3.2 6.5 5.1 8.8 16.4 19.2 7 6.4 15.4 13.5 18.7 15.6 14.5 9.3 27 8.7 38.8-2l4.1-3.7-.6-17.5c-.8-26.7-6.2-49.1-16.7-68.7l-5-9.3 4.6-4.2c8.1-7.5 15.8-13 22.4-16.2 13-6.2 23.8-3.3 34.9 9.2 5.9 6.7 12.7 11.2 29.1 19.3 12.1 6 18.7 7.9 27 7.9 7.9 0 12-1.2 17.7-5.3 4.3-3.1 11.3-12.1 11.3-14.6 0-2.3-13-34.1-18.3-44.6-2.7-5.5-6.4-13.4-8.2-17.6-1.7-4.2-6.4-12.2-10.4-17.8l-7.2-10.2 7.3-9.6c4.7-6.1 9.4-11.1 13.1-13.7 5.1-3.6 6.5-4.1 12.7-4.4 6.1-.4 7.7-.1 13.6 2.7 3.6 1.7 8.2 4.4 10.2 5.9 2.9 2.2 7.5 3.7 21.7 7.1 29.2 6.9 41.3 5.8 50.5-4.6 2.4-2.7 4.7-7 6-10.9l2.2-6.5-5.6-9.4c-4.6-7.6-5.5-9.9-4.7-11.3.9-1.6-1.6-5.4-14.7-22.9-14.7-19.7-16.6-21.8-28.7-32.1-7.2-6-15.4-12.1-18.3-13.6-5.2-2.6-6-3.8-4.3-6.5.7-1.1 2.2-.4 7.3 3.7l6.4 5.1 3.8-7.7c5.2-10.5 8.7-14.6 15.2-17.8 4.9-2.4 6.3-2.6 12.7-2.1 4.1.3 10.3 1.7 14.4 3.2l7.1 2.7 18.4-1.1c20.5-1.1 28.3-2.9 36.4-8.4 8.3-5.5 12.1-12.8 12.5-24.2l.3-6-6.2-5c-6.6-5.3-6.5-5.3-4.6-13.5.5-2.3-1.2-4-19.8-18.6-19.7-15.7-20.8-16.3-36.8-23.7-9.1-4.1-18.7-7.9-21.4-8.3l-4.8-.7.5-4.4c.2-2.4.7-4.7 1.1-5 .3-.3 2.6.2 5.2 1.2 2.5.9 4.9 1.3 5.3.9.4-.5 1.3-2.7 1.9-4.9 1.9-6.8 6.6-12.9 12.4-16.1 5-2.7 6-2.9 17.8-3 11.2-.2 13.8-.5 24.7-3.8 23.6-7 31.3-10.6 38.3-17.7 6.4-6.6 8.3-15.1 5.8-25.9-1.1-4.7-1.7-5.5-6.5-8.6l-5.3-3.4v-16.8l-24.2-10.5c-24-10.4-24.5-10.5-40-13.1-8.6-1.4-18.8-2.6-22.6-2.6h-6.9l-.7-4.6c-1.1-8.1-1-8.4 2.7-8.4 3.3 0 3.4-.2 5-6 3-10.6 10.9-16.6 25.5-19.4 6.1-1.2 9.6-2.7 20.1-9.1 23-13.9 32.4-22.6 35.2-32.9 2.4-8.7-2.6-23.7-8.7-26.5-2.9-1.2-3.3-2.1-5.8-12l-2.8-10.7-26.1-3.6-26.2-3.7-16.5 1.5c-9.6.9-19 2.3-22.4 3.4-3.3 1.1-6 1.9-6.2 1.7-1.4-1.5-5.2-13.3-4.5-14.1.4-.6 1.1-3.3 1.5-6 1.2-9.8 7.7-17 19.9-22.6 5.3-2.4 8.3-4.9 17.4-14.4 13.8-14.5 18.9-21 21.9-28.3 4.2-10.3 2.8-19.9-4.4-29.2-1.6-2-6.1-9.3-10.1-16.3-6.3-11-7.6-12.7-9.5-12.3-1.1.2-12.4 1.6-25.1 3-23 2.6-23 2.6-40 8.7-10 3.6-18.9 7.5-21.7 9.4l-4.8 3.4-7.1-9.5c-6.4-8.5-7.1-9.8-6.5-12.7 1.2-6.3 4.8-11.8 12-18.5 6.2-5.8 8.4-8.9 14.9-20.8 9.1-16.7 12.6-25.1 13.4-32.6.9-8.7-.3-14.3-4.3-19.5-2.8-3.6-3.4-5.2-2.9-7.2.5-2.2-.8-3.9-11.2-14.4-6.5-6.5-12.2-11.8-12.8-11.8-.5 0-11.6 4.2-24.5 9.3-22.2 8.8-24.3 9.9-37.7 19-7.8 5.4-16 11.8-18.1 14.3l-4 4.5-17.4-13.7c-9.5-7.5-18.1-14.2-19.2-14.9-1-.8-1.5-1.8-1.2-2.4.4-.6 3.2 1 6.8 3.9 3.4 2.8 6.5 5 6.9 5 .3 0 1.4-2 2.4-4.5.9-2.5 3.5-7.3 5.8-10.7 3.4-5 4.7-8.7 8-21.7 6.7-26.9 6.2-40.4-1.9-49.9-3.4-4.1-3.5-4.2-2.5-9.4.5-2.9.9-5.4.8-5.4-1.1-.8-28-16.6-29.1-17-.8-.3-9.8 5.7-22.2 14.8-19.6 14.5-21.4 16-31.7 28.3-6 7.1-12.2 15.6-13.8 18.7L826 195l-5.8-2.6c-3.1-1.4-13.1-5.7-22.2-9.6-9.1-3.9-16.6-7.1-16.8-7.3-.2-.2 1.4-4.6 2.4-6.3 0-.1 2.2 1 4.8 2.4 2.6 1.4 4.8 2.5 5 2.3.2-.2 1.3-3.5 2.6-7.2 1.9-5.9 2.2-8.7 2.1-21.5-.3-23.4-2.7-34.6-9.7-43.8-3-3.9-3.6-5.7-4.7-13.7l-1.2-9.1-16-4.8c-8.8-2.6-16.5-4.7-17.2-4.5-.6.1-8.2 9.2-16.9 20.2-15.1 19.1-16.1 20.7-23.1 35.9-4.1 8.8-7.9 18.2-8.5 21-.5 2.8-1.3 5.4-1.7 5.7-.5.6-47.2-5.7-47.6-6.4 0-.1.1-2.8.3-6 .3-4.5.7-5.7 1.8-5.3.8.3 2.1.9 2.9 1.2 1.2.5 1.5-.4 1.5-5.3 0-10-10.5-39.5-17.4-48.8-1.3-1.7-4.7-8.9-7.7-16.1l-5.3-13.2-6-.6c-3.2-.3-11.1-.6-17.5-.6h-11.6l-10.4 24zM651 298.5c27.7 2.8 57.4 9.1 80.9 17l10.4 3.5-.5-8.5c-.3-4.7-.3-8.5.1-8.5 2.3.1 3.5 3.4 6.2 17.6l3 15.9-4.3 24-4.3 24-19.5 33c-10.8 18.1-26.3 44.4-34.5 58.3l-15 25.3-18.8 15.1c-10.4 8.4-20 16.8-21.4 18.7l-2.5 3.6.7-3c.4-1.7 3.3-15.6 6.6-30.9 5.7-27 7.2-35.9 4.3-26.6l-1.3 4.5.4-4.5c.6-6.4.1-4.7-11 35.5-5.3 19.2-9.7 35-9.8 35.1-.1.1-2.7-.2-5.7-.7-3-.4-8.4-.8-11.9-.8-6.3-.1-6.7-.3-27.5-12.2-23.6-13.6-23.9-13.8-21-11.2 1.2 1 2 2.6 1.9 3.5-.2 1.3 3.8 4.4 14.7 11.4l15 9.8-8.9 2.2c-12.8 3.1-21.6 6.9-34.5 14.5l-3.6 2.2-9.7-5.6-9.6-5.7-24.5-4.5-24.5-4.4-58.2-34.5-58.3-34.5-11.4-14.3-11.5-14.3.1-7.6c.4-27.7 21.5-52.3 67.5-78.7 5.8-3.4 27.4-14.4 48-24.5 37.8-18.7 48.7-23.1 71.9-29.1 18.4-4.8 44.2-9.1 65.5-10.9 11.8-1 53.4-.5 66.5.8zm155.7 36.7c2.9 1.8 5.3 3.7 5.3 4.3 0 .5-2.9 5-6.4 9.8-12.9 18-29.2 31.6-34.4 28.8-2.6-1.4-3.5-5.7-2.7-12.5l.7-5.4 7.5-3.8c8.8-4.4 19-13.9 21.9-20.1 1-2.3 2.1-4.3 2.4-4.3.2 0 2.8 1.4 5.7 3.2zm64.6 62.6c18.7 16.8 39.5 40.8 53.7 61.9 3 4.5 6.2 8.3 7 8.6 2.8.8 18.2 33.6 27.1 57.6 29.6 79.5 29.6 174.5 0 255.6-2.7 7.5-5.1 13.9-5.3 14-.2.2-7.7 1.7-16.6 3.4l-16.4 3-23.8-4.4-23.8-4.3-58.2-34.5-58.2-34.4-15.4-19.1c-14.6-18.1-15.8-19.3-23.9-24.2-7.6-4.6-8.5-5.5-8.5-8.1 0-3.6 1-3.7 4.3-.3 2.9 2.9 5.2 2.3 4.3-1.1-.3-1.2-1.3-11.8-2.1-23.5-1.7-23.3-3.3-32.8-7-40.8-2.2-4.8-2.3-5.7-1.1-8 2-4 6.3-17.7 8.1-25.7.9-3.9 2-8.4 2.5-10 .5-1.7 1.7-6.4 2.6-10.5 3.9-17.4 9.4-30 18-41 2.3-3 9.1-13.8 14.9-24 21.6-37.4 28.5-48.1 40-61.9 12.9-15.5 28.4-27.2 44.8-33.9 6.1-2.5 18.6-6.2 19.9-5.9.4.1 6.3 5.3 13.1 11.5zM319.9 470c4.8 5.7 8.1 12.4 7.4 15-.6 2.1-4.4 4-8.2 4-7.1 0-23.5-5.3-37.6-12.2-9.7-4.8-10-5-8.6-7.6 1.1-2.1 1.1-2.1 5.9.4 2.6 1.3 7 2.7 9.7 3 4.7.6 5.1.4 6.7-2.3 3.5-5.7 3.1-5.5 8.2-3.2l4.9 2.1 2.5-2.5c1.4-1.4 3.1-2.3 3.7-2 .7.2 3.2 2.6 5.4 5.3zm7 61.9c12.6 2.5 16.5 3.7 20.5 6.3 12.8 8 24.3 14.8 42 24.5 26 14.4 36.3 20.5 48.3 28.5 16.8 11.2 30 22.5 33 28.3 1.7 3.2 16.1 18.5 17.4 18.5.5 0 1.1-2.2 1.5-5l.6-4.9 2.9 1.4c1.5.8 3 1.9 3.4 2.4.3.6 0 5.9-.7 12-1.4 13.2-.2 25.8 3.8 39.6 2.7 9.5 9.5 24.6 13.6 30.5l2.5 3.4-5.8 9.6-5.8 9.6-4.4 24.5-4.5 24.5-34.5 58.3-34.5 58.3-18.9 15.1-18.9 15.2-15.1 4.9-15.1 5-7.9-7.1c-39.2-35.5-72.1-80.2-87.2-118.7-31.9-81.3-36.5-167.1-13.1-247 6.4-21.7 12-35.9 15-37.3 11-5.2 36.7-5.4 61.9-.4zm352.5 1.4c2.6 1.9 3.1 8.5 1.1 17.4-2.6 11.7-2.1 11.3-12.3 11.3-7.5 0-9.4-.4-13.9-2.8-2.9-1.5-5.1-3.2-4.9-3.7.2-.6 1-.8 1.7-.6.8.2 3.7.6 6.4.8 9.7.8 16.5-6.3 16.5-17.3 0-4.7.6-6 3.1-6.3.3-.1 1.3.5 2.3 1.2zm-5 35.9c-.9 3.3-1.2 3.3-3.5 1.2-1.9-1.7-1.9-1.9-.2-2.5 3.5-1.4 4.5-1 3.7 1.3zm-157.8 12.4c5.2 2.1 5.1 2 2.1 5.2-2.4 2.5-12 17.7-13 20.5-.5 1.6-6.3-2.9-13.9-10.6-5.8-6-7-8.3-2.6-5.3 5.6 3.9 14.4.5 18.6-7.2 2.6-4.7 3.3-4.9 8.8-2.6zm109.9 44c6.6 1.7 11.3 4.1 12.6 6.4.5.8 2.7 5.3 4.9 10 2.1 4.7 3.7 7.3 3.4 5.7-.9-4 .4-3.3 2.2 1.3.9 2.3 1.8 3.9 2 3.7.2-.2-1-3.9-2.7-8.2-1.7-4.4-3.2-9.8-3.5-12-.3-2.2-.7-5-1-6.3-.8-4.1.6-2.3 4.1 4.9 5 10.4 6 16.4 4.7 28.1-2.4 21.9-15.9 37.8-37.2 43.7-4.1 1.2-9.8 2.1-12.7 2.1-11.6 0-24.2-4.6-33-12.1-5.8-4.9-10.7-10.6-8.3-9.7 1.3.5 1.5-1.2 1.6-10.6.1-12.6 1.9-18.9 7.8-27.9 6.3-9.4 17.9-16.9 31.1-20 4.6-1.1 18.5-.6 24 .9zm97.3 99c2.7 9-7.9 10.4-27.5 3.9-6.2-2.1-11.3-4.1-11.3-4.4 0-1.2 4.6-5.2 5.2-4.6.3.3 3.7.6 7.6.6 7.4 0 14.4-2.2 17.1-5.4 1.2-1.5 1.6-1.3 4.6 2.4 1.8 2.3 3.7 5.7 4.3 7.5zM557 752.1c0 1.7-15.4 17.1-19.9 20.1-10.1 6.4-14.8 1.8-12.5-12.3.6-3.2 1.2-3.8 6.8-6.3 3.5-1.5 7.7-4.2 9.5-6l3.2-3.3 6.5 3.4c3.5 1.9 6.4 3.9 6.4 4.4zm136.5 18c5.5 1.5 13.3 4 17.3 5.4 10.7 3.7 22.9 6.5 29 6.5 4.7 0 6.1.6 12.5 4.8 9 6.1 16 10.1 46.8 27.3 37.1 20.6 50.4 29.5 68.7 45.9 5.5 5 10.2 9 10.5 9 .2 0 .2-1.2 0-2.8l-.5-2.7 1.9 2.3c1.9 2.3 11.3 29.4 11.3 32.5 0 2.2-34.6 37.1-46 46.4-58.6 47.7-122.9 75.2-198.4 84.9-17.6 2.2-51 2.9-70.5 1.5-19.1-1.4-24.7-2.8-12.6-3.2 6.9-.2 7.3-.3 3-.8l-5-.5 5.5-.7c3-.3-3-.4-13.5-.1l-19 .4-16-3.7c-8.8-2-22.1-5.7-29.6-8.1l-13.5-4.4 7.3-34.2c7.2-34.1 8.4-41 5.8-33.3l-1.4 4 .4-4.5c.8-7.1-.5-3-10 32-4.9 17.9-9 32.7-9.1 32.8-.1.2-1.8-.2-3.8-.9-2.7-1-3.7-2-4.1-4.3-.4-1.7-.9-3.9-1.2-4.9-.4-1.7-.2-1.7 3.1-.3l3.6 1.5v-5.4c0-26.6 11.6-57.2 37.7-99 5.5-8.8 12.5-20.7 15.7-26.4 7-12.7 16-26.4 23.3-35.3 7.8-9.6 23.7-24.5 32-30 4.6-3.1 7.4-5.8 8.1-7.6 1.4-4.1 5.9-9 10.6-11.5 3.8-2 6.1-2.2 29.1-2.8 29.5-.8 32.4-1.4 42.8-9.3 2.5-1.9 5.6-3.6 6.9-3.9 4-.7 10.9.4 21.3 3.4zm197.8 69.4c3.6 2.7 3.8 2.7 5.7 1 2.2-2 8.9-2.2 13.4-.5 5 1.9 6.5 1.3 9.8-4 1.7-2.8 3.5-5 3.9-5 1.6 0 9.9 4.4 9.9 5.3 0 1.1-4 8-10.7 18.5l-5.3 8.3-2.8-1.5c-8.8-4.6-31.1-24.5-34.1-30.6-.9-1.7-.1-1.2 2.6 1.6 2.1 2.3 5.5 5.4 7.6 6.9zm-455.3 91c4.5 5.5-.3 25.7-11.2 46.8l-4 7.7-6.7-3.6c-9.3-5.1-20.1-12.2-20.1-13.2 0-.4.6-1.7 1.4-2.7 1.1-1.5 2.8-1.9 8.2-2 16.2-.4 27.4-12.3 27.4-29.2 0-4.5.3-5.3 1.9-5.3 1 0 2.4.7 3.1 1.5zM990.5 988c.3.5.1 1-.4 1-.6 0-1.1-.5-1.1-1 0-.6.2-1 .4-1 .3 0 .8.4 1.1 1z"/>
			<path d="M552 524.9c2.4 2 4 2.6 4 1.6 0-.2-1.5-1.2-3.2-2l-3.3-1.6 2.5 2zM727.8 559.7c.7.3 1.6.2 1.9-.1.4-.3-.2-.6-1.3-.5-1.1 0-1.4.3-.6.6zM720 561.1c0 .5 1.1.9 2.5.9s2.5-.2 2.5-.4-1.1-.6-2.5-.8c-1.4-.3-2.5-.1-2.5.3zM490.1 936.6c0 1.1.3 1.4.6.6.3-.7.2-1.6-.1-1.9-.3-.4-.6.2-.5 1.3zM486.8 82.6c-.3 1.1 0 2.8.7 3.8 1.2 1.6 1.4 1.4 2-1.4.4-1.7.4-3.4.1-3.7-.3-.4-.6.5-.7 1.8l-.1 2.4-.7-2.5c-.7-2.4-.7-2.4-1.3-.4z"/>
		</symbol>
	</defs>
</svg>