<svg xmlns="http://www.w3.org/2000/svg" aria-hidden="true" style="position:absolute;width:0;height:0;overflow:hidden">
	<defs>
		<!--burger-->
		<symbol id="burger"  viewBox="0 0 28 28">
			<path  d="M4 7a1 1 0 0 1 1-1h19a1 1 0 1 1 0 2H5a1 1 0 0 1-1-1ZM4 14a1 1 0 0 1 1-1h11a1 1 0 1 1 0 2H5a1 1 0 0 1-1-1ZM5 20a1 1 0 1 0 0 2h17a1 1 0 1 0 0-2H5Z"/>
		</symbol>
		<!--openBurger-->
		<symbol id="openBurger" viewBox="0 0 24 24">
			<path d="M13 12a1 1 0 1 1-2 0 1 1 0 0 1 2 0Z" stroke-width="2"/>
			<path d="M7 12a1 1 0 1 1-2 0 1 1 0 0 1 2 0Z" stroke-width="2"/>
			<path d="M19 12a1 1 0 1 1-2 0 1 1 0 0 1 2 0Z" stroke-width="2"/>
		</symbol>
		<!--home-hero-->
		<symbol id="hero" viewBox="0 0 1528 1629"><path d="M715.2 6c-10.8 1.5-43.2 8-53.7 10.7-11 2.8-23.3 7.5-42.4 16.1-14.6 6.5-21.2 10.2-26.1 14.7-1.9 1.8-5.7 4.5-8.5 6.1-10.7 6-16.4 10.4-15.8 12 .6 1.6-1.5 3.7-2.9 2.8-.4-.3-.8-1.8-.8-3.3 0-1.5-.7-3.6-1.5-4.7-1.4-1.8-1.8-1.7-12.7 4-15.5 8-41.3 24.1-44 27.3-.8 1-.6 1.3 1 1.3 1.1 0 5.2-2.7 9.1-6 4-3.3 8-6 8.9-6.1.9 0 5.7 0 10.5.1 6.7.1 9.5-.3 11.3-1.5 1.4-.9 3-1.5 3.7-1.2 1.1.3-.7 2.3-22.2 23.2-5.6 5.5-10.7 10.8-11.2 11.7-2.3 4.2 2.3 1.2 14.1-9.3 16.5-14.6 22.3-19.1 31.1-23.9 11-5.9 12.8-5.3 5.6 2.1C563 88 558.5 94 559.8 94c.6 0 1.4-.5 1.7-1 1.3-2 15.2-10.7 22-13.8 10.5-4.6 19.1-8 27.5-10.8 8.2-2.6 10-2.9 10-1.4 0 .9-18.3 10.1-26 13-5 1.9-10 5.8-10 7.8 0 .9-2 3.7-4.5 6.2-6.4 6.4-19.5 21.9-19.5 23.2 0 1.3 3.1-.7 13.5-8.7 14.5-11 19.5-13.2 41-18.5 7.2-1.7 18.1-4.7 24.4-6.6 6.2-1.9 12.2-3.4 13.2-3.4 2.7 0 1.4 2.3-2.4 4.3-3.8 2.1-10.7 8.2-10.7 9.5 0 .5-.9 1.9-2 3.2-3 3.5-2.4 4.2 1.8 2.1 2.1-1 6.4-2.7 9.7-3.6 3.3-.9 8.5-2.5 11.5-3.5s11.1-3.1 18-4.5c6.8-1.5 19.7-5.1 28.6-8 22-7.2 25.7-7.9 41.4-7.8 17.2 0 49.7 4.3 57 7.4 6.8 2.9 6.9 5.5.3 6.4-2.7.3-11.1 1.7-18.7 3.2-14.4 2.6-15.4 2.7-41.1.7-7.6-.6-16.6.8-23 3.5-5.6 2.4-16.4 7.9-19.7 10-5.1 3.2-4.9 4.8 1 5.6 2.6.3 6.7.8 9.1 1.1 2.5.3 7.9 1.5 12 2.6 11.4 2.9 28.8 2.8 40.6-.3 7.8-2.1 9-2.7 9.5-4.9.6-2.8 6.9-6.3 18-10.1 5.5-1.8 9.8-2.3 28.5-3 12.1-.4 25.4-1.2 29.5-1.8 4.1-.6 11.1-1.1 15.5-1.1 6.7 0 7.7.2 6.5 1.3-.8.8-5.1 2.4-9.4 3.6-25.8 7.3-33.8 9.1-46.2 10.6-16.1 2-20.8 3.3-24.9 6.8-1.6 1.4-4.1 3.5-5.5 4.6l-2.5 2.1 2.5 2c1.4 1.1 3.1 2 3.8 2 .9 0 1.9 2 1 2-.2 0-5.2.7-11.3 1.5-13.4 1.8-28.6 1.8-46.5.1-13.1-1.3-19.4-1.1-35.7 1.2-7.5 1-8.7-.6-2.3-3.2 5.4-2.1 5-3-.9-2.2-9.3 1.2-23.1 7.2-23.1 10 0 .5-1.6 2.9-3.6 5.3s-3.3 4.7-3 5.1c.7.6 14.1-3.5 16.1-5 .6-.4 2.9-1.1 5-1.7 2.2-.6 9.3-2.4 15.7-4 23.1-5.9 36.3-4.9 14.8 1.1-5.8 1.6-11.2 3.6-12 4.4-1.9 1.9-.9 1.9 9.3-.1 10.8-2.1 22.6-1.9 34.9.5 13.9 2.7 17.1 3.8 32.8 11 11.6 5.3 37.5 15 40.1 15 .5 0 .9-.7.9-1.6 0-1.8-.8-2 24.5 4.1 20.7 5.1 28.3 8.5 39.5 17.6 12.4 10.1 19.9 14.4 18.4 10.4-.7-1.7 2.1-2.1 3.1-.5 2.2 3.6 32.1 15 44.5 16.9 9.2 1.5 42.2 4.1 50.5 4 7.3-.1 26.1 4.1 37.1 8.2 5.6 2.1 11.6 6.6 13.4 10 .6 1 1.7 7.3 2.5 14.1s2.5 17.7 3.9 24.3c3.6 17 10.2 52.2 12.1 64.2.9 5.6 3.4 15.5 5.6 22 8.8 25.9 12.4 47 12.4 72.8-.1 15.5-.4 19.9-2.8 31.6-3.1 15.5-3.4 26-1.2 37.5l1.5 7.8-2.8 2.2c-1.5 1.3-4.1 2.5-5.8 2.8-1.6.4-4.7 1.5-6.8 2.6-2.1 1-5 2.1-6.4 2.5-2.6.5-2.7.8-2.3 6.2.5 8-1.1 12.4-6.5 17.3-8.3 7.6-12.6 8.9-33.5 10-19.5.9-22.6 1.6-48.8 9.6-9.6 2.9-14 3.7-25.1 4.4-13.3.8-13.8.9-35.2 8.4-25.2 8.7-28.5 10.3-39.3 18.5-4.4 3.4-10.8 7.5-14.2 9.2-3.5 1.6-6.3 3.6-6.3 4.3 0 2 6.7 7.6 11.9 10 4.2 1.9 6.4 2.1 28.1 2.1h23.5l5.7-2.8c3.1-1.5 6.5-2.7 7.5-2.7 1.6-.1 6.9-2.4 12.8-5.7 3.1-1.7 14.6-6.9 18.3-8.1 7.2-2.6 8.9-3.2 14.2-4.8 3.3-1 9.9-1.7 16.5-1.9 15.8-.3 25.9-2 33.5-5.7 4.9-2.4 8.4-3.3 15.1-3.9 4.7-.4 9.6-1.2 10.8-1.8 1.2-.7 7.6-1.3 14.9-1.4 11.6-.2 13.2-.4 18.3-3 3.1-1.5 6.1-2.7 6.7-2.7 1.5 0 1.5 2.6 0 7-.8 2.4-1.2 11.4-1.3 28 0 25.4-1.2 48.9-2.6 51.2-.6 1-1.7 1-5.1.1-2.6-.6-6.7-.8-10.3-.3-7.2.9-8.1.8-31-3.7-9.9-1.9-21.8-4.1-26.5-4.9-4.7-.8-13.4-2.6-19.5-4-37.2-8.6-63-9.5-92.5-3.2-5.2 1.1-11.7 2.8-14.4 3.8-9.8 3.8-14.5 8.9-9.6 10.5 1.7.5 2 1.4 1.8 4.3l-.3 3.7 6.2.3c4.2.2 10.2-.7 19.1-2.8 7.1-1.6 14.5-3 16.3-3 4.8.1 10.6 3 16.9 8.8 8.3 7.5 17.4 12.9 23.8 14.3 8.6 1.9 21.5 1.4 30.2-1 19.2-5.5 21.4-5.3 35.5 3.4 5 3.1 13.7 7.8 19.5 10.6 5.8 2.8 14.6 7.1 19.5 9.5 9.2 4.4 12.4 6.7 26.2 18.7 10 8.8 15.5 12.1 18.8 11.3 1.9-.5 2.5-1.3 2.5-3.3 0-2.2 4.6-9.2 12.6-18.9 2-2.4 4.9-1.5 8.9 2.8 6.3 6.8 6.9 8.3 7.3 19.9.4 11.1-.7 16.9-5.8 29.9-4 10.2-4.8 15.3-5.4 36-1.1 37.6-5.4 65.4-12.2 79-1.9 3.8-8.8 24.1-14 41-.7 2.5-2.8 11.7-4.5 20.4-1.7 8.8-4.9 21.2-7.1 27.5-9 26.3-12 35.7-14.9 47.3-1.8 7.1-4.9 16-7.4 21.3-6.3 13.1-9.3 21.3-12.5 34.5-3.2 12.7-9.8 31.5-12.7 35.5-1 1.4-3.5 3.5-5.5 4.6-2.1 1-5.2 3.6-7 5.6-1.8 2-5.6 6-8.4 8.9-5.2 5.3-8.9 11.5-10 16.9-.4 2-2.8 5.1-7.1 9-9.9 9.1-14.3 13.6-19.7 20.1-7.1 8.6-8.9 13.3-9.1 23.3l-.2 8.4-6.4 4.7c-3.5 2.6-11.1 7.2-16.9 10.2-5.8 3-12.8 7.1-15.7 9.2-4.9 3.5-11.3 11.6-12.7 16.1-.3 1.1-2.3 4-4.5 6.4-2.1 2.4-4.8 6.4-6 9-1.2 2.5-2.6 5.3-3 6.1-1.2 2.2-6.9 3-12.8 1.8-7-1.4-16.6.9-22.9 5.4-4.2 3-11.4 13.2-11.4 16.1 0 4-8.4 13.7-11.7 13.7-1.9 0-2.9 1.1-4.9 5.3-3.3 7-7.7 13.2-9.4 13.2-1 0-2.2-2.7-3.6-8-2.9-10.8-6.9-21.4-8.7-23.2-2.7-2.8-5.6-.6-9.2 7-4.3 9.1-10.7 15.4-20.8 20.7-8 4.1-10.5 4.7-13.5 3.1-.9-.5-2.5-1.2-3.4-1.5-1.3-.4-1.8-1.6-1.8-4.6 0-4.6-.4-4.7-4.5-2-3.9 2.6-4.5 2.5-4.5-.5 0-1.4-.6-2.5-1.3-2.5-1.4 0-5.7 5.2-5.7 6.8 0 1.7-3.7 4.2-6.2 4.2-1.9 0-2.9 1-4.8 4.7-2.2 4.7-6.7 10.3-8.1 10.3-.4 0-1-1.2-1.3-2.6-.6-2.1-1-2.4-2.1-1.4-1.9 1.6-3.5.4-3.5-2.5 0-3.9-1.8-3.9-6.1 0-3.6 3.2-4.3 3.5-5.7 2.2-4.2-3.5-8.2-2.5-18.7 4.6l-5.9 4-12.6.1c-9.8 0-14.4-.5-21-2.2-4.7-1.2-10.6-2.2-13.2-2.2-13.5 0-32.8-20.2-41.8-43.8-2-5.3-4.9-12.9-6.4-16.9-2.8-7.4-9.7-17.3-12.1-17.3-1.6 0-4.5 7-4.5 11 0 3-1.3 4-2.5 2-.3-.6-2.7-1.9-5.3-3-2.6-1.2-5.4-2.4-6.2-2.9-7-3.8-11.8-6.7-19.5-12-10.1-7-15-8.7-28-9.6-4.9-.4-10.4-1.3-12.2-2-4.8-2-11.6-7.5-15.3-12.3-2.1-2.8-3.7-3.9-4.3-3.3-.5.5-2.5.7-4.3.4-2.5-.4-3.4-.2-3.4.8 0 3.5 2.9 15.7 4.4 18.6.9 1.8 6.9 7.6 13.4 13 6.4 5.3 17 14.1 23.4 19.5 12.1 10 16.8 13 22.8 14.3 3.7.8 6.4 2.3 12.2 6.8 3.1 2.3 3.6 3.2 2.8 4.7-1.5 2.7-.3 4.7 4.9 8.2 2.5 1.7 9.1 6.4 14.6 10.3 5.5 3.9 14.9 10.5 20.8 14.6 6 4.1 12.8 8.9 15.2 10.7 6.7 5.2 22.9 13.8 33.5 17.8 5.2 2 17.4 6.7 27.1 10.5 26 10.1 34.6 12.1 74.4 17.4 10.5 1.4 25.3 3.6 33 5 12.6 2.3 15.2 3.1 26.5 8.6 15 7.4 16.8 8.1 34 12.4 7.4 1.9 20 5.7 28 8.5 23.1 8.1 45.4 10.4 71.3 7.5 16-1.8 22.3-1.4 46.2 2.5 15.2 2.5 21.8 5.7 31.9 15.1 8.9 8.3 10.6 12.1 8.8 19.8-1.2 5.3-4.9 11.4-12.1 20.1-10.9 13.2-50.3 56.8-91.1 101-11.3 12.3-19.7 23.1-20.6 26.5-.3 1.3-.3 3.3.1 4.4l.6 2.1H1528v-33.8l-7.2-4.5c-19-11.7-39.8-22.7-45.2-24.1-1.5-.4-6.5-1.3-11.1-2.1-9-1.6-19.5-5.1-19.5-6.5 0-1 4.5-2.1 10.8-2.5 20.5-1.5 26.3-3.9 37.6-15.5 10.8-11.1 13.2-17.4 10.5-27.5-1-3.6-7-19.5-11.9-31.5-1-2.5-8.7-22.7-17-45s-16.8-43.7-18.8-47.5c-3.6-6.8-10.8-17.9-24.9-38.3-13.8-19.9-15.7-22.8-18.3-28.7-3.7-8.2-6.2-16.9-10.5-37.5-2-9.6-4.7-22.5-6-28.5-3.3-15.3-5.3-29.9-6-44-1.6-31-5-43.4-16-60-8.3-12.5-84.3-89-96-96.7-9.5-6.2-13.1-7.9-46.2-22.2-39.1-16.9-43.1-18.8-51.3-24-8.2-5.3-10.1-8.3-7.7-12 .9-1.3 6.9-6 13.4-10.3 20.1-13.3 28.4-23.5 41.3-50.6 8.1-16.9 11.7-28.3 22.5-71.2 20-79.2 22.9-99.4 20.6-144.9-1.6-31-4.3-41-14.2-51.3-9.1-9.6-17.7-14.9-28.6-17.7-11.9-3.1-20.1-1.7-29.4 5.1-4.7 3.3-6.9 4.1-6.9 2.4 0-.5 1.3-4 3-7.8 2.2-5.3 3.2-9.7 4-18.4.6-6.3 2-20.2 3-30.9 6.7-67.1 7.9-108.4 4.7-161.5-2.1-34-9.7-93.7-14.3-111.5-.7-3-2.9-11.8-4.8-19.5-6.3-25.8-18.7-54.4-38.8-89.5-17.3-30.1-24.8-44.6-31.7-60.6-8.4-19.8-10-22.9-16.6-32.9-6.1-9.2-21.5-24.6-35.5-35.4-27.7-21.5-42-28.2-107.1-50-27.7-9.3-54.4-18.2-59.4-19.9-4.9-1.7-11.5-3.7-14.5-4.5-11.5-3.2-44.9-7.2-71-8.7-25.3-1.3-90.4-2-97.8-1zm-27.8 21.4c-.6 1.7-61.4 22-64 21.4-2.1-.5 13.3-8.8 22-12 2.6-.9 6.7-2.7 9.1-3.8 2.3-1.1 9.6-3 16.1-4.1 6.5-1 12-2.2 12.3-2.4.2-.3 1.5-.5 2.7-.5 1.6 0 2.2.5 1.8 1.4zm49.6.7c0 1.5-8.2 4.9-18.4 7.6-13.4 3.5-16.3 2.7-7.3-1.9 9.8-5 25.7-8.6 25.7-5.7zm56.7 14.1c6.3.6 11 1.4 10.6 1.9-.4.4-10.9.9-23.3 1.2-16.2.3-24.6.9-29.9 2.1-8.3 1.9-10.4 1.4-4.6-1 12.6-5.2 25.7-6.4 47.2-4.2zm110.6 37.7c.4.4-4.1 1.1-10 1.4-5.9.3-16.2 1.5-22.8 2.7-15.9 2.7-26.3 3.6-25 2.2 1.1-1.2 22.7-5.8 33.8-7.2 7.7-.9 22.7-.4 24 .9zm-43.6 81.5c7.7 1.7 15.4 4.7 13.6 5.3-.7.3-4.5-.2-8.5-1.1-4-.9-11.5-2.3-16.5-3.2-11.1-1.9-12.7-4-2.4-3 3.9.3 10 1.3 13.8 2zM683.7 1348l2.6 2h-2.5c-2.4 0-4.8-1.6-4.8-3.2 0-1.4 2.1-.9 4.7 1.2zm78.6 39c6.2 0 5.2 1.3-2 2.7-4.1.8-5.5.7-6.4-.3-1.4-1.7-.2-3.7 1.8-3 .8.3 3.8.6 6.6.6zM447.2 162.4c-5.4 7.2-20.9 33-26 43.1-5.7 11.5-8.7 19.3-15.3 40.5-1.8 5.8-4.5 14.3-5.9 19-7.8 24.3-11.8 39.9-16.5 64-.9 4.7-2.3 11.4-3 15-4.7 21.7-7.6 66.6-9 136.5-1.6 84.5-1.7 90.4-.6 102.5.7 6.9 1.6 22.6 2 35 .5 12.4 1.5 25.5 2.3 29.2 1.6 7.1 4 11.8 6.2 11.8 1.6 0 4-2.6 3.3-3.7-.5-.8-1.7-19.3-4.2-65.8-3.7-67.5-3.7-56.6-.9-165.6.5-19.7.4-26.8-.4-27.3-2.3-1.4-.6-12.6 1.8-12.6.4 0 1.1-1.9 1.4-4.3 1.2-7.9 2.6-7.7 2.6.4 0 4.8.5 8.2 1.4 9.4 1.3 1.8 1.4 1.8 2-.1 1.8-5.9 11-53.2 11.7-60.4.8-8.3 3.2-23.2 6.5-39.5 1.3-6.9 4.2-16.7 9.9-34 .7-2.2 3.6-9.8 6.4-16.9 2.8-7.1 5.5-15.4 6.1-18.5.5-3.1 1.4-8.2 1.9-11.3.7-4 2.7-8.7 6.5-15 2.9-5.1 6.3-11.3 7.4-13.8 2.7-6.1 7.6-21.9 7-22.5-.3-.3-2.3 1.9-4.6 4.9z"/><path d="M598 562.4c-3 .7-7.2 2-9.3 2.9-4.6 2-14.7 11.4-14.7 13.7 0 1.9 9.2 8.8 21 15.5 6.7 3.9 8.6 4.6 10 3.7 1-.6 6-1.2 11.1-1.3 7.2-.2 10.2.2 12.6 1.4 2.4 1.3 5.9 1.7 14.3 1.7 7.6 0 12.2.5 14.7 1.5 4.5 1.9 45.3 2.2 45.3.4 0-.6-6.2-7.4-13.7-15.1-11-11.2-15.2-14.7-20.5-17.4-9-4.6-12.4-5.3-33.3-6.9-21.7-1.7-30.2-1.7-37.5-.1zM692.5 609.2c-2.2.6-15 1.4-28.5 1.8-13.5.4-24.6.8-24.7.9-1.5.8 1 2 7.4 3.5 7.7 1.9 21.3 8.2 22 10.2.7 2.3-5.7 3.3-24.2 3.8-31.4.8-52 3.9-92 14.1-34.5 8.8-46.4 13.3-61.6 23.5-10.3 7-22.9 17.2-22.9 18.7 0 1.7 3.5 1.7 9.6-.2 2.7-.8 13.9-3.1 25-5 11-1.9 21.8-3.8 24-4.4 6.3-1.6 20.7-5.8 23.7-7 1.6-.6 4.8-1.1 7.2-1.1 2.4 0 5.5-.5 6.9-1.1 2.3-1.1 3-.8 6.5 2.4 2.2 2 6.4 4.9 9.3 6.3 10 5.2 27.7 4.3 37.7-1.9 1.9-1.1 6.9-5.2 11-9 4.2-3.7 9.7-7.9 12.3-9.2 2.6-1.4 5-2.9 5.3-3.5.4-.6 1.5-.8 2.5-.5 2.9.9 8.9-2.1 14.5-7.4 3-2.9 6.5-5.2 8.5-5.6 1.9-.4 4.4-1.3 5.5-2 1.2-.8 4.2-1.2 7.5-1 3.3.2 6.9-.3 9-1.2 1.9-.8 5.3-1.8 7.5-2.1 3.3-.6 4.3-1.4 5.7-4.2 2.1-4.1 2.5-16.9.6-18.8-1.4-1.4-9.6-1.4-15.3 0zM864 628c-9.4 1.6-19.7 7.2-24.2 13.2-4.3 5.7-11.8 16.9-11.8 17.7 0 .4-.5 1.2-1.1 1.8-.7.7-2 3.6-3 6.5-2.6 7.2-2.4 16.7.6 32.3 3.5 18.2 3.3 27.3-1 48.6-5.9 28.9-5 36.1 7.8 66.9 9 21.6 11.1 28.8 11.2 38.5 0 7-.3 8.5-2.7 12.1-1.4 2.3-7.1 7.7-12.5 12s-15.3 13.1-22.1 19.5c-13.5 12.7-19.8 17-29.3 20.1-13.1 4.1-13.5 4.7-5.6 8.3 7.6 3.4 18.8 5.4 36.2 6.4 8.4.5 15.7 1.1 16.2 1.4.4.3 5 1 10.1 1.6 16.3 2 34.9-1 45.8-7.4 6.7-3.9 16-14.9 20.7-24.4l4.2-8.5-.1-17.5c-.1-26.1-2.8-34.4-19.4-60.1-18-27.8-27.4-53.6-33-91.1-1.1-7.4-3.9-22.5-6.1-33.5l-4.1-20.2 1.7-5.8c2.4-8.3 6.9-12.5 16.5-15.5 9.1-2.8 13.6-5.9 15.7-10.7.8-2.1 2.1-5 2.9-6.5.8-1.6 1.4-3.7 1.4-4.8 0-1.6-.7-1.9-5.2-1.8-2.9.1-7.3.5-9.8.9zM340.2 694.7c-11.5 11.1-15.2 22.1-15.2 45.6 0 7.4.5 17.2 1.1 21.8 2 16.4 2.7 15 3.9-8.5 1.5-27.5 5.1-41.9 14-55.7 6.8-10.5 5.2-11.8-3.8-3.2zM701 887.7c-5.3.9-9 2.5-9 3.9 0 1.7 2 2.1 13.3 2.9 4.8.3 12.2 1.3 16.4 2.1 4.2.8 7.9 1.2 8.2.8 1.2-1.2-5.9-6-11.1-7.6-6-1.8-14.1-2.8-17.8-2.1zM926.2 1034c-8.5 9-12.9 11.5-26.7 15.5-11.1 3.2-23.6 5.1-38.3 6l-11.2.7-1.1-2.9c-.9-2.7-1.5-3-8-4-4.7-.8-8.5-2.1-11.7-4.2l-4.7-3-15 4.8c-28.7 9.3-44.9 11.4-59.8 7.6-11-2.8-25.6-.9-48.2 6.2-4.1 1.3-10.6 1.5-37.2 1.5-18.5-.1-32.3.3-32.3.8 0 1.8 14.6 13.3 20 15.8 8.8 4.1 19.6 4.2 39 .2 20.1-4.2 33.4-4.8 50.5-2.5 10 1.3 19.6 1.7 41.5 1.7 26.6 0 33.5.5 38.5 2.8 2.6 1.3 20.9 3.1 36 3.7 18.8.7 32.1-3.1 59.7-17 22.1-11.2 24.8-12.3 33.2-13.8 5.6-1.1 7.4-1 12.6.4 3.3.9 6.2 1.7 6.5 1.7.9 0 .5-9.8-.4-12.3-3.6-9.3-17.7-17.7-29.8-17.7h-5.4l-7.7 8zM376.2 1074.8c-2.1 3.3-4.8 5.7-8.4 7.7-2.9 1.6-7.1 4.2-9.3 5.7l-3.9 2.9-1.6-2.2c-1.7-2.1-1.7-2.1-6.1 3.2-11 13.2-11.1 13.3-10.4 19.2.7 5.6-.6 9-8.2 21-5.2 8.2-12.3 24.2-12.3 27.7 0 3.3 2.2 11.4 4.1 15.2.5 1 .9 3 .9 4.5 0 1.6.5 4.4 1 6.3.6 1.9 1.7 6.4 2.5 10 1.4 6.8 3.2 13.8 6 23 2.2 7.4 4.4 16.2 4.5 17.7 0 .7-2.4 2.5-5.2 3.9-4.1 2.1-6.9 2.7-12.3 2.8-4.4.1-9 .9-12.5 2.2-3 1.2-8.1 2.9-11.2 3.8-3.6 1.1-7.5 3.2-10.4 5.6-2.5 2.2-5.5 4.5-6.7 5.1-1.2.7-4 2.6-6.2 4.4-7.7 6.1-16.1 10.6-19.1 10.3-2.5-.3-2.9.1-3.5 3.2-4.1 19.6-4.9 22.1-12.3 40-9.4 22.3-11.1 26.7-19.2 47-10.8 27.3-14.7 34.9-32.9 63.5-3.5 5.5-11.1 17.6-16.9 27-5.8 9.3-14.8 23.7-20 32-13.8 21.8-18.3 29.5-20.2 34.6-1.7 4.5-1.7 4.7.8 10 3.8 8.4 5.1 14 3.9 17-.6 1.6-3.9 4.5-8.3 7.4-4 2.7-7.8 5.4-8.3 6-1.3 1.6-10.2 6-13.6 6.8-1.4.4-8.3 3.4-15.2 6.7-6.9 3.3-12.9 6-13.2 6-.3 0-4.2 1.7-8.8 3.9-10.8 5.1-17.6 8.1-26.7 12-4.1 1.8-10.2 4.5-13.5 6.1-10.6 5-18.9 8.7-21.2 9.4-2.1.7-2.3 1.3-2.3 8.2v7.4h469.9l.3-3.2c.4-3.8 2.5-4.9 3.1-1.6l.4 2.3.2-2.3c.2-3.6 2.1-2.5 2.1 1.3 0 1.9.5 3.5 1 3.5.6 0 1-1.5 1-3.3l.1-3.2 1.4 3.2 1.4 3.2 70.2.1h70.1l-3.1-3.5c-1.7-2-3.1-4-3.1-4.6 0-.6-2.6-3.8-5.8-7.2-3.2-3.4-7.1-8.2-8.7-10.7-5.1-7.7-19.4-21.8-32.7-32.2-15.3-11.9-22.5-19.5-32.2-34.2-9.4-14.1-16.3-28.1-23.8-47.6-5.5-14.5-17.1-38.3-20.6-42.3-2-2.3-3.7-2.2-6.3.5-3.9 4.1-6.8 11.9-7.4 19.8-.8 10.2-1.4 14-2.4 14-1.4 0-19.2-22.1-20.3-25.2-1.6-4.5-.3-10.5 5.3-25 9.5-24.8 10.9-35 13-97.3 2.3-68.9 2.7-93 1.8-99-.6-3.5-3-10.2-5.9-16-3.9-8.1-6.8-12.2-15.1-21.5-5.6-6.3-12.7-14.6-15.8-18.4-5.3-6.6-5.6-6.8-9.2-6.3-2.7.4-4.2 0-5.3-1.2-2.5-2.8-8.6-16.4-8.6-19.2 0-1.5-2.9-8.7-6.5-16-4.4-9-9-21-14.1-36.7-4.1-12.8-8.1-23.5-8.9-23.8-.7-.3-1.6-1.6-1.9-3-1-3.9-3.9-2.9-7.4 2.4zm59.6 356.3c2.4 4.5 3.8 8.9 4.7 15.1 1.7 11.4 4.8 17.7 12.7 26.3 5.8 6.3 13.8 16.7 13.8 18 0 .2 1.8 3.4 4 7 4.3 7 4.5 7.5 3 7.5-2 0-8.2-7.4-10.5-12.6-3.6-8.2-10.8-14.5-20.8-18.3-2.3-.9-2.7-1.7-2.7-4.8-.1-2.1-.7-5.6-1.5-7.8s-1.5-5.7-1.5-7.8c0-2.1-.8-5.9-1.9-8.5-2.1-5.3-4.2-13-4.9-18.1-.7-5.2 1.7-3.5 5.6 4zM777.5 1140.1c-12.6 1-21.3 7.5-28.3 21-4.8 9.4-5.4 12.3-4.1 19.9.6 3.6 1.5 6.9 1.9 7.5.5.5 3.2 8.2 6 17 2.9 8.8 6.3 17.4 7.6 19.2 1.3 1.7 2.4 3.8 2.4 4.6 0 .7 1.1 3.6 2.5 6.2 1.3 2.7 2.7 6.2 3 7.7.9 3.8 2.1 3.5 3.5-1 1.2-3.7 9-16.1 10.1-16.2.4 0 1 1.1 1.3 2.5.9 3.5 2.5 3.2 9.5-2 3.4-2.5 7.2-4.5 8.6-4.5 1.7 0 2.9-.8 3.7-2.5 1.2-2.6 3.8-3.4 3.8-1.3 0 3.1 2.2 8.9 3.2 8.6.7-.3 1.7-1.9 2.3-3.8 1.4-4 3.1-4.9 4-2.1.7 2.3 3.1 2.8 3.7.9.6-1.6 2.5-.2 5.8 4.3l2.8 3.9 2.7-3.6c1.5-2 3.6-6.2 4.5-9.3 1-3.1 2.5-7 3.3-8.6 2-4 8.2-17.1 10.2-21.5.9-1.9 2.7-5.5 4-8 1.4-2.5 2.5-5.1 2.5-5.8 0-.7 1.1-3.2 2.5-5.6 2.5-4.4 6.2-19.2 5-20.4-.4-.4-4.6-.8-9.3-.8-14.8-.2-41.4-3-46-4.9-4.6-1.9-19.5-2.5-32.7-1.4zm13.5 4.9c0 2.6-6 15-7.3 15-1.7 0-7.7-5-7.7-6.5 0-.8 1.9-2.3 4.3-3.3 2.3-1.1 5.3-3.1 6.6-4.6 2.9-3.1 4.1-3.3 4.1-.6z"/></symbol>
		<!--projects-silhouette-full-->
		<symbol  id="silhouette" viewBox="0 0 667 1000">
			<path d="M305 154.5c-2.5.8-5.7 2.7-7.2 4.2-2.3 2.5-9.5 12.9-12.3 17.8-1 1.7-1.4 1.7-8-.6-9-3-22.5-3.4-25.2-.7-1.6 1.7-1.6 1.9.7 4.3 2.2 2.3 11.7 7.4 23.7 12.6l4.2 1.8-1.8 6.6c-1.7 6.2-1.8 6.7-.1 8.8 3.3 4.3 3.2 7-.5 12.8-3.2 5-4.5 9.9-2.7 9.9.5 0 1.6.6 2.6 1.3 1.5 1.1 1.6 1.8.8 3.3-1.6 3 1.6 27.1 4 30.1 1.4 1.7 9.8 6.3 11.6 6.3 1.1 0 1.3.7.8 3.1-.3 1.7-.6 3.5-.6 4 0 1.3-5.6 3.9-8.2 3.9-1.3 0-3.3.7-4.5 1.5-1.1.8-4 1.7-6.4 2.1-2.4.3-6.3 1.7-8.6 3s-5.7 2.4-7.6 2.4c-2.8 0-4.1.8-6.8 3.8-4.2 4.9-11.7 15.1-15.8 21.8-3 4.9-9.4 20.6-11 26.9-1 3.8-3.6 8.8-5.3 10.3-.8.6-2.5 3.5-3.7 6.4-1.3 2.9-4.8 10.6-7.8 17-4.6 10.1-5.5 13.3-6.7 22.4-2 14.9.1 26.6 5.2 29.2.9.5 6.9 1.2 13.2 1.6 6.3.3 16.2.9 21.9 1.2l10.3.7-.6 4.1c-3 18.2-3.2 27.5-1.1 37.7 1.4 6.5 1.4 7.7 0 11.3-.8 2.3-1.5 6.8-1.4 10.1.1 8.2-1.6 24.1-3.1 28.8-.6 2.2-.9 4.5-.6 5.2.2.7-.4 4.5-1.4 8.3-1.2 4.8-1.6 9.1-1.3 13.4.3 3.5-.2 13.7-1 22.8-1 10.7-1.2 18.6-.7 22.5.5 3.3.9 10.3.9 15.5.1 13.6 2.8 38.5 5.7 52.5 1.3 6.6 3.3 16.7 4.3 22.5 1.1 5.8 2.6 13.2 3.4 16.5.9 3.3 1.9 9.4 2.3 13.5.4 4.1 1.3 9.5 2 12 1.8 6 1.8 13-.1 15.7-1.5 2.1-1.4 2.5 1.1 6.2 1.6 2.5 2.4 4.7 2 5.9-.4 1.1-.2 3.1.5 4.4.8 1.9.7 3.3-.5 6.3-1.9 4.4-2.2 28-.6 41 .5 4.4 1.9 16.5 2.9 27 1.1 10.4 2.6 20.9 3.5 23.2.8 2.2 1.3 4.3 1.1 4.5-.2.1-.6 3.8-.9 8.1-.3 4.3-.9 8.9-1.2 10.3-.3 1.3-.3 4.9.1 8 .5 4.4 1.4 6.4 4.1 9.3l3.3 3.8-3.4 3.3c-1.9 1.9-3.5 3.9-3.5 4.6 0 .6-.6 1.4-1.4 1.7-.8.3-1.9 2.2-2.4 4.1-1.6 5.6-7.8 13.7-14.6 19.1-3.4 2.7-7 6.1-7.8 7.5-1 1.8-3.4 3.1-8.9 4.8-10.6 3.3-13.6 4.8-15.4 7.6-2 3-2.9 8.6-1.7 10.4 1.6 2.4 15.9 5.1 26.7 5.1 11.2 0 19.8-.9 36-3.8 6.1-1.1 17.3-2.7 24.9-3.5 16.5-1.6 17.1-2 16-10.5-.4-2.9-.7-16-.8-29-.2-23-.3-23.7-2.7-29.1-2.4-5.2-2.5-6-1.8-16.5.4-6.1 1.5-17.5 2.5-25.5 2.2-18.6 2.4-62.9.4-77.5-.8-5.5-1.3-12.6-1.2-15.8.1-3.2-.2-6.6-.7-7.6-.7-1.2-.5-2.6.7-4.7 1-1.8 1.7-5.6 1.9-9.9 1.8-56.5 2.2-62.1 4.7-74 1.4-6.6 2.6-12.5 2.7-13 0-.6.9 2.4 1.9 6.6 1.1 4.2 3 20.4 4.4 36 2.5 28.5 5.7 47.2 9.1 53.4 1.2 2.4 1.4 4.6.9 10.7-.5 6.7-.3 8.2 1.4 11 1.7 2.8 2.2 6.3 3 21.8.6 10.2 1.8 23.4 2.6 29.5.9 6 2 14.4 2.6 18.5.5 4.1 1.2 12.4 1.5 18.5.4 8.1 1.3 13.1 3.2 19.1l2.7 8-4.7 8.8c-2.6 4.9-4.7 10.2-4.7 11.8 0 3.7 3.9 20 5.1 21.2.5.6.9 3.8.9 7.2 0 3.4.7 8.1 1.5 10.5 1.4 3.9 1.4 4.9-.1 11.1-1.7 7.1-1.5 15.1.5 17.1 1.8 1.8 22.9 2.1 34.4.6 11.3-1.4 11.7-1.7 12.1-11.1.3-4.9-.1-6.9-2.1-10.4-1.6-2.8-2.7-7-3.3-12.1-.4-4.3-1.3-9.3-2-11.1-1.6-4.3-.5-8 2.5-9.2 2.8-1.1 3.3-3.7 1-4.6-.9-.4-1.5-1.9-1.5-4 0-3.5-3-10.7-5-11.9-1.7-1.1-1.1-5.1 1.6-10.3 2.1-4.1 2.9-7.7 4-19.4 2.8-27.1 3.9-91.3 1.6-94-.5-.7-1.8-4.9-2.7-9.2-.9-4.4-1.8-8.3-2.1-8.7-.3-.5 0-2.7.7-4.9 1.1-3.5 1-4.2-.5-5.9-2.1-2.3-3-11.5-1.4-14.1.6-1 .8-2.5.3-3.6-.4-1.1-.8-6.9-.8-13 .1-8.8.4-11.8 1.8-14.2 1.5-2.5 1.6-4.1 1-10.8-.5-4.3-.8-8.2-.7-8.5 1.7-7.7 6-38.6 7.7-55.4 1.2-11.8 2-15.6 3.6-17.8 1.2-1.6 1.7-3.2 1.2-4-.4-.6-.8-9.5-.8-19.7-.1-10.3-.7-22.1-1.4-26.7-.7-4.6-1-9.1-.5-10 .4-1 .8-9 .9-17.8.1-10.5.6-17 1.4-19 1.8-4.1 1.5-34.6-.5-47.5-.8-5.5-2.6-15.3-3.9-21.7-2.9-13.6-3-17.2-.9-23.3 1-2.9 1.4-6.2 1-9.3-.4-3.8.1-6.1 2.5-11.9 1.7-3.9 4.2-8 5.4-9 4.5-3.5 8.1-21.3 10.1-49.1 1.7-24.7 1.5-29.2-2-35.1-2.7-4.6-12.2-13.3-17.6-16.2-5.2-2.7-14.3-6.4-16-6.4-.8 0-2.9-.9-4.6-1.9-2.4-1.5-3.4-3.2-4.7-7.8-1-3.3-1.7-6.9-1.7-8.1 0-3.1-1.9-3.6-6.3-1.7-2 .8-5.6 1.5-8.1 1.5-4.3 0-4.5-.1-6.2-4.5-2.6-7-1.5-14.8 3.5-23.9 2.7-4.9 4.1-8.8 4.1-11.1 0-2.8.4-3.5 1.6-3.3.9.2 2.6-.9 3.7-2.4 1.7-2.3 1.8-2.9.7-4.3-1.2-1.4-1-2.3 1-6.1 2.4-4.3 2.4-4.5.7-7.6-1-1.8-2.6-7-3.7-11.6-2.7-11.4-4.7-14.8-14.8-25.2-8.3-8.5-9.1-9.1-12.8-8.9-3.4.1-18.1-1.3-26.9-2.5-1.6-.3-5 .2-7.5.9z"/>
		</symbol>
		<!--contact-hero-->
		<symbol
				id="hero-contact"
				viewBox='0 0 630 779'
			>
			<path d='M447 19.9c-11.4 1.8-15.9 2.2-30 2.7-14.8.5-15.9.7-29 4.3-4.1 1.1-10.6 2.9-14.5 3.9-12.1 3.3-26.3 10.4-34 17.1-3.8 3.3-9.9 8.1-13.4 10.8-10.7 7.9-17.5 14.8-22.8 23-20 30.8-30.2 49.3-31 55.5-.2 2.4-1.3 7.4-2.4 11.3-1 3.8-1.9 7.2-1.9 7.5.1.9 4-4.5 4-5.5 0-1.8 2.1-8.7 2.5-8.3.2.2-.2 3.1-1 6.3-.8 3.3-1.4 8-1.5 10.4 0 2.5-1 6.6-2.4 9.5-1.4 2.8-2.7 5.9-3 6.9-.3 1-1.1 1.5-1.7 1.2-.6-.4-.5.2.2 1.4 1.1 1.6 1.1 2.9.1 6.5-1.2 4.7-.7 8 1.1 6.9.6-.3.7-.1.3.6-1.6 2.5-6.6-.1-6.1-3.1.2-1 0-2-.4-2.2-.7-.5-.7 1.9.1 9.3.2 1.3-.3 2.5-1 2.7-.7.1-.8 0-.2-.3 1.4-.7.2-2.3-1.6-2.3-.8 0-1.2.4-.9 1 .3.5.1 1-.6 1-.8 0-.8.4.1 1.5 1.1 1.3 1 1.4-.4.9-.9-.3-1.6-.1-1.6.5s.5 1.1 1.1 1.1c.6 0 .3.7-.6 1.6-1.5 1.5-6.1 1.7-39.8 2.1-36.7.5-48.6.8-49.7 1.3-.3.1-3.3.3-6.6.5-3.4.1-6.6.5-7.2.9-.6.3-2.9 0-5.2-.8-3.8-1.3-4.1-1.3-3.6.2.5 1.5.4 1.5-.8-.1-1.7-2.1-8.4-2.3-15.2-.3-5.3 1.5-16.1 4.5-18.1 4.9-.7.2-1.6.7-2 1.1-.8.8 4.8 0 10.7-1.5 1.9-.5 4.9-.9 6.7-.9 1.7 0 3.4-.6 3.6-1.3.4-.8.6-.7.6.3.1 1.1-3 2.3-11.1 4.4-6.2 1.6-11.5 3.2-11.8 3.5-.3.3-3.5 2.1-7.3 4-11.5 5.7-14.6 11.2-10.4 18.4 6.9 11.7 28.7 24.7 68.7 41 10.2 4.1 20.7 8.5 23.4 9.7 6.8 2.9 41.3 13.3 48.5 14.7 1.3.2 3.2.8 4.2 1.4 1.6.8 1.9.5 2.4-1.8 1.2-5.7 5.4-18.1 8.6-25.1 3.8-8.7 4.7-9.2 22.4-14.6 10.2-3.1 15.2-4 33.5-5.7 48.1-4.5 106.1.7 168 15.2 37 8.6 55 13.9 55 16 0 .5-.9.9-1.9.9-2.4 0-3.1 1.9-1.7 4.2.7 1.2.7 2.7-.2 5.1-.7 1.8-1.3 4.7-1.3 6.3-.1 1.6-.3 2.1-.6 1.2-.3-1.2-1.2-1.5-3.1-1.2-1.5.3-2.9 1-3.2 1.5-.9 1.4-7.3 3-8 2-.3-.5-1.7-1.2-3-1.6-2.1-.5-2.6-.2-2.6 1.4 0 1.1.4 1.7.8 1.5.4-.3.8.2.8 1 0 .9.6 1.6 1.2 1.6 1.4 0-3.2 4.6-4.7 4.7-3.9.3-12 2.5-12.6 3.4-.4.7-1.1.9-1.6.6-.5-.3-1.5-.2-2.3.3-1 .6-.4 1.1 2.1 1.7 3.5.9 4.2 2.5 1.3 2.9-.9.1-1.8.4-2 .7-.6.6 9.1 5.7 10.8 5.7 1.5 0 1.6.1 2.2 6.6.2 2.3.7 4.7 1.1 5.4.5.8.2 1.8-.7 2.4-.8.6-1.3 1.7-1 2.5.3.8 0 1.1-.6.7-.6-.3-1.3-.2-1.7.4-.3.5-.1 1 .5 1s.8.4.5 1c-.3.6.2 1 1.2 1.1 1.6 0 1.6.1-.2.8-1.9.8-1.9.8 0 1.9 1.8 1 1.6 1.1-1.3 1.2-1.8 0-3.1-.3-2.9-.8.3-.4-.7-.8-2.1-.8-3.8-.2-6.4-.9-11.1-3.4-2.3-1.1-4.6-1.8-5-1.5-.5.3-1.1.1-1.3-.4-.1-.5-2.1-1.2-4.3-1.5-2.2-.4-5.6-1.1-7.5-1.6-2-.5-7.4-1.7-12-2.5-4.7-.9-12.9-2.7-18.4-4.1-5.4-1.4-14.7-2.8-20.7-3.3-6-.4-11.2-1-11.5-1.4-1.9-1.8 1.4-5 9.2-8.8 4.6-2.3 8.4-4.7 8.4-5.2 0-.6.2-.8.6-.5.3.3 2.7-.3 5.5-1.3 2.7-1.1 6.1-1.9 7.5-1.9 1.4 0 4.8-1.1 7.6-2.5 2.7-1.4 5.7-2.5 6.5-2.5.9 0 1.3-.3 1-.6-.7-.8 3.6-4.4 5.2-4.4 1.5 0 1.4-2-.1-2.4-5.1-1.4-20.2-4-24.5-4.1-3-.1-8 .7-12 2-10.4 3.4-13.3 3.8-13.3 1.8 0-1.3-.7-1.4-3.7-1-7.1 1.2-13.8 3.5-13.5 4.7.1.6-.2.9-.8.5-.6-.4-2.3-.4-3.8 0-2 .4-2.8 1.2-3 3-.1 1.4.4 2.5 1.1 2.6.6 0 .3.4-.8.9s-1.4.9-.7.9c.7.1.4.9-.9 2.2-1.1 1.1-1.8 2.7-1.5 3.5.3.9.2 1.2-.5.9-.6-.4-1.3.1-1.5 1.2-.3 1-1.8 2.5-3.3 3.4-1.5.9-2.8 2.2-2.9 3-.4 7-.4 8.7.2 10.5.9 2.8 5.8 4.8 9.3 4 1.6-.4 4.8-.8 7.3-1 4.1-.4 4.8-.1 8 3.4 4.9 5.2 7.4 6.3 12.6 5.5 2.4-.3 4.4-1.1 4.4-1.7 0-.6.9-.8 2.3-.4 1.2.4 2.7.8 3.4 1 .7.1 2.2 1.4 3.3 2.9 4.5 5.8 14.1 7.8 22.6 4.8 3.2-1.2 6.6-2.1 7.5-2.1 1 0 6.5 1.6 12.4 3.5 5.8 1.9 12.2 3.8 14.3 4.1 6.3.9 10.7 2.3 12.7 4 1.1.8 1.4 1.2.7.9-1.1-.6-1.1-.3 0 1.4.7 1.2 1.5 2.1 1.8 2.1.3 0 1.4 1.5 2.3 3.3 1.8 3.4 1.9 3.4 6.4 2.4 5.3-1.3 7.6-4.5 5.2-7.3-1.1-1.4-1.2-1.8-.1-2.2 1.9-.6 5.2-4.4 5.2-5.9 0-1.1 6-4.9 8.3-5.2.4-.1 1-.1 1.5-.2.4-.1 1.7 0 2.9.1s3.2-.4 4.5-1.1c1.2-.6 3.5-1.2 5-1.1 1.5 0 2.8-.4 2.8-.9s1-1.4 2.3-1.9c1.7-.7 1.8-.9.5-.9-2.4-.1-2.3-1.8.1-3 2.2-1.2 7.2-1.7 8.6-1 .6.3 1.8-.2 2.8-1.3 1.9-2 .9-2.6-1.1-.6-.8.8-1.2.8-1.2.1 0-1.3 2.6-2.4 4.3-1.8 1.3.6 8 10.7 9 13.7.4 1 1.4 1.8 2.4 1.8 1.4 0 1.5.2.4.9-1 .6-1 1.3-.2 2.9 1.2 2.2.4 6.2-.9 4.2-.4-.6-1 1.6-1.3 4.9-.4 3.3-.7 6.3-.8 6.8-.5 2.6.2 6.3 1.1 5.8 1.7-1 1.2 9.1-.5 10.5-.8.6-1.4 1.5-1.3 1.8.1.4-.1 1.4-.5 2.2-.3.8-1.1 3.2-1.7 5.3-.7 2.1-1.6 3.4-2.2 3.1-.6-.4-.8.2-.3 1.7.4 1.6.3 2-.3 1.1-.7-1-1.4-.6-3 2-1.2 1.8-2.2 2.6-2.2 1.8-.3-4.5-2 4.2-1.9 9.4.1 3.3-.2 7.2-.6 8.6-.8 3-1.3 5.8-1.4 8.3-.1 1-.5 1.5-1.1 1.2-.6-.4-1 .8-1 2.8 0 2.9-2 11.5-3.7 15.7-.3.8-.5 2.1-.4 2.9.1.8-.2 1-1 .6-.9-.6-1 0-.5 2.1l.6 2.9-1.5-2.5-1.6-2.5.7 2.4c.4 1.6.3 2.1-.5 1.7-.6-.4-1.1-.3-1.1.3 0 .5.6 1.2 1.3 1.4.9.4.9.6 0 .6-.7.1-1 .8-.7 1.6.4.8.2 1.5-.4 1.5-.6 0-1.2-.6-1.5-1.3-.6-2-2.9 6.2-2.4 8.9.2 1.3-.1 2.5-.7 2.5-2.1.2-4.1-.3-4.7-1.3-1.5-2.5-2.9.7-2.9 6.8 0 3.5-.4 6.4-.9 6.4s-.8-1.8-.7-4c0-2.2-.2-4-.6-4-.4 0-.4-1.7-.1-3.8.5-3 .3-3.5-.7-2.5-.8.7-1.3 3.1-1.2 5.5.1 3-.1 3.8-.7 2.8-.6-.8-.8-1.7-.6-2 .2-.4-.2-.7-1-.7s-1.2.4-.9.8c1 1.7-4.6 9.5-5.9 8.3-.3-.3-1.9 1.5-3.7 4-1.8 2.7-3.9 4.6-5 4.6-1 0-2.2.5-2.5 1-.4.7-2.2.9-4.3.5-3.7-.5-3.7-.5-1.4 1.1 1.3.9 3.1 1.4 4 1.2 1.3-.4 1.7.3 1.9 3 .1 1.9.7 3.8 1.3 4.2.9.5.8 2.8 0 8.8-.8 4.9-1.6 7.9-2.2 7.6-.6-.4-.8.1-.4 1.4.4 1.1.2 2.3-.3 2.7-1.1.6 1.2 4.9 3.9 7.3 1.1 1 1.2 1.5.3 1.8-.7.3-1.3 1.2-1.3 2s-.4 1.4-.8 1.4c-.5 0-.9.6-.9 1.4 0 .8.6 1.2 1.5.8 1-.3 1.3-.1.8.6-.4.7-1.4 1.2-2.3 1.2-1 0-1.4.6-1 2 .3 1 0 2.1-.7 2.4-.7.3-.8.7-.1 1.3 1.3 1 1.3 7.2 0 9.3-.8 1.3-.7 1.3.9.1 1.5-1.2 1.9-1.2 3.4.4 1.6 1.7 1.6 1.7 0 1.2-1.2-.4-1.8-.1-1.8.8 0 .8-.8 1.5-1.7 1.5-1.5 0-1.4.4.6 1.9 3.7 2.8.8 3.4-2.9.6-1.9-1.4-3.1-2.6-2.7-2.6.4-.1 1.2-.3 1.7-.4.6-.1 1.3-.3 1.7-.4.3 0-.2-1.1-1.3-2.3-1-1.2-1.3-1.8-.6-1.4 1.2.7 1.6-.9 1.2-4.9-.3-2.5-1.3-3.1-6.3-3.9-4.7-.8-13.9-5.6-18.1-9.4l-2.9-2.7 1.7 2.6c.9 1.4 1.3 2.8 1 3.1-.3.4 2.9 3.1 7 6.2 4.2 3.1 7.6 5.8 7.6 6.1 0 .2-1.8.3-4 .1-2.2-.2-4-.1-4 .2 0 1.8 6.9 7.7 10.9 9.5 4.5 2 12.6 8.7 10.4 8.7-.6 0-2.7-.7-4.7-1.5-4.5-1.9-4.7-.3-.3 2.4 3 1.9 15.8 7.1 17.3 7.1.4 0 .1-.7-.6-1.5-1.8-2.2.3-1.8 2.7.4 1.2 1.1 2.4 1.7 2.7 1.4.9-.9.7 1.3-.4 4.1-.8 2.2-1.4 2.5-3.8 2-1.9-.4-3.2-.1-3.7.7-.5.7-.4 1 .3.5.6-.3 1.4-.2 1.7.4.4.6-1 1.7-3 2.5-2 .9-4 2.6-4.5 4-.6 1.5-1.7 2.5-3 2.5-1.1 0-2 .7-2 1.5 0 1.1-1.2 1.5-4.2 1.6-2.4.1-4.7.1-5.1 0-.5-.1-.6.3-.2.9.3.5 1.6 1 2.8 1 4.7 0 9.7 2.1 9.7 4 0 1.6-3.5 2.9-9.2 3.4-1.2.2-2.1 1.6-1 1.6.7 0 1.2.5 1.2 1.1 0 .8-1.4 1-3.9.6-4.1-.5-11.1-5-11.1-7.2 0-2.6-11-5.5-13.4-3.5-1.1.9-2.5.8-6.1-.4-5.2-1.8-7.2-2-7.7-.7-.1.5-1 1.1-1.8 1.3-.8.2-1.7.6-2 1-.3.4-2.4.9-4.5 1.1-2.2.1-4.6.6-5.3 1.1-.7.4-4.4.7-8.3.7-8.1 0-9.2 1-6.5 6.5 2.1 4.6 2 6.4-.4 3.6-1.8-2.2-1.9-2.2-2.5-.2-.6 1.8-.9 1.9-2.3.8-1.8-1.5-1.9-1.8 3.7 7.9 5.5 9.4 5.2 13.1-.4 5.1-2.2-3.2-4.6-6-5.2-6.2-2.1-.8-1.5 5.5.7 8.9 2.8 4.2 2.4 5.6-.5 2-2.6-3.1-3.4-2.9-1.3.5.7 1 1 2.2.7 2.5-1.1 1.1-3.4-.6-5.9-4.2-1.9-2.8-2.6-3.3-2.8-1.9-.3 1.2-1.3-.1-2.9-3.6-2.1-4.5-2.6-5-3.3-3.3-.4 1.1-.5 2.4-.3 2.8.3.4-.1 1.4-.7 2.3-.9 1-1.1 3.9-.7 9.4.2 4.4.1 7.8-.3 7.5-.4-.3-1 .8-1.3 2.4-1 4.7-3.9 3.4-5.6-2.5-1.1-3.7-1.6-4.3-1.9-2.6-.2 1.2-.8 2-1.3 1.7-.5-.4-.9 1.6-.9 4.5 0 6.3-.8 7-13.4 12.1-11.4 4.5-13.5 4.7-17.3 1.5-2.4-2.1-2.8-3.2-3.1-9.7-.3-4.1-.9-7.7-1.6-8.1-3.4-2.3-6.6.9-6.5 6.5 0 3.7.2 3.9 1.1 2 1-2.1 3.6-3.8 4.5-2.9 1 .9-1 7.4-2.1 7-.6-.2-1.7.9-2.3 2.6-1.4 3.8-3.6 3.9-11.7.4-6.7-2.9-12.6-8.2-12.6-11.4 0-1.1-.7-2-1.5-2s-1.5.5-1.5 1.1c0 .5-.4.8-.9.5-.5-.4-1.1-.1-1.3.5-.3.9-.9.9-2.6 0-2.1-1.1-2.1-1-1.2 1.4 1.2 3.3 1.2 3.5 0 3.5-.6 0-2.7-1.6-4.6-3.5-1.9-2-3.9-3.3-4.4-3-.5.3-1.6-.5-2.4-1.7-1.6-2.2-6.9-18.2-8.2-24.3l-.6-3-2.8 3.2c-1.6 1.7-3.2 2.8-3.6 2.5-.4-.4-.4-.1.1.7.6 1 1.3.7 3.2-1.5l2.5-2.9-1.9 3c-1.1 1.6-1.9 3.7-1.8 4.5.1.8-.3 2-.8 2.7-.5.7-.5 1.8-.1 2.5.5 1 .4 1-.6.1-.7-.7-.9-1.7-.4-2.5 1.4-2.2 1.3-3.6-.2-4.2-1.7-.7-3.3 2.9-3.7 8-.1 1.9-.5 3.4-.9 3.4-.5 0-.8 2.1-.8 4.6 0 4.1.1 4.4 1.6 3 1.7-1.8 5.3-2.2 5.5-.6.5 4.1 2.1 5.5 6.1 5.6 2.3.1 3.5-.3 3.1-.9-.3-.6-.1-.7.5-.3.7.4 1.2 1.5 1.2 2.4 0 1.5.2 1.5 1 .2.7-1 1 1 1 6.5 0 8.5.7 12.8 2 12 .4-.2.8 3.2.9 7.7.2 7.6 1.2 13.4 6 34.8 1 4.7 2.2 11.6 2.5 15.5.4 3.8 1.3 9.5 2.2 12.5.9 3 2 7.5 2.5 9.9.5 2.3 1.3 6.1 1.9 8.2l1.1 3.9h21.6l4.1-8.7c8.1-17.1 15.9-49.6 16.9-70 .5-9.2.9-11.3 2.2-11.7.9-.2 5.9-.7 11.2-1.1l9.6-.7 5.7 5.7c3.1 3 6.7 6 8 6.5 2.4.9 6.7.3 7.6-1 .3-.4 8.3-1 17.9-1.3 9.5-.3 17.6-.8 17.9-1.1.3-.4 1.4-.6 2.4-.6 1.1 0 1.7-.4 1.4-.9-.3-.4.6-.6 1.9-.3 1.4.2 2.5 0 2.5-.6s1.4-1.3 3.1-1.7c1.7-.4 3.3-1.3 3.6-2.1.3-.8.9-1.1 1.4-.8.5.3.9.1.9-.4 0-1.7 9-4.2 14.9-4.2 7.6 0 36-8.3 44.9-13 1.9-1.1 4-1.6 4.5-1.3.6.4.7.1.2-.7-.6-1-.4-1.2 1.1-.6 1 .4 1.5.4 1.1 0-.8-.9 5.7-4.7 9.9-5.9 1.6-.5 3.1-.9 3.4-1 2.1-.6 8.5-3.7 9-4.4 1.1-1.7 9-6.1 11-6.1 1.1 0 2-.5 2-1 0-.6 1.4-1 3.1-1 1.7 0 2.8.4 2.4 1-.4.6.6 1 2.3 1 1.6 0 3.2.3 3.5.7 1.2 1.1 11.7 1.5 11.7.4 0-.6-.8-1.1-1.7-1.1-1.6 0-1.6-.2-.3-1 .8-.6 3.1-.9 5-.8l3.5.3-.2-4.5c-.1-3.6 0-4.1.8-2.2.5 1.4 1.3 2 2 1.6.8-.4.9-.3.5.5-.4.6-1.2.8-1.8.5-.7-.4-.8-.2-.4.4.4.6 1.3.9 2.1.5.8-.3 1.5-.1 1.5.5s-.6 1.3-1.2 1.5c-.9.4-.8.6.2.6 1.8.2 9.5 22.5 8.3 24.4-.4.6-.6 2.4-.5 3.9.2 2.6-.5 3.1-11 8.2-9.8 4.6-74.5 41.3-87.9 49.7-2.6 1.6-12.5 11.3-22 21.6-9.6 10.2-18.7 19.4-20.4 20.4l-3 1.9h2.8c1.5 0 3-.7 3.3-1.5.4-.8 1.1-1.2 1.7-.8.5.3.7.2.4-.4-.4-.5.7-2.3 2.3-3.8 1.7-1.6 3-2.5 3-2 0 .4.8.1 1.8-.8.9-.8 2.2-1.6 2.7-1.6.6-.1 1-.4 1-.9 0-2.4 10.4-14.4 11.8-13.5.6.4.7.1.2-.7-.6-1-.4-1.2.8-.7.9.3 1.9.1 2.3-.5.5-.7.2-.8-.6-.3s-1.1.3-.8-.6c.3-.8 1.1-1.3 1.7-1.1.7.1 1-.2.6-.8-.8-1.3 1.9-5.2 2.9-4.2.4.4.6.2.5-.3-.4-1.3 2.9-6.2 4.6-6.9.8-.3 1.7 0 2.1.6.4.7.3.8-.4.4-1.8-1.1-4.5 3.9-3.3 6.2.7 1.3.7 2.3-.2 3.2-.8.9-.8 1.1-.1.7.7-.4 1.4-.1 1.7.6.6 1.6-1.7 4.9-2.8 3.9-.5-.4-.5-.2-.1.5.3.7-.2 1.4-1.4 1.8-1.1.3-2 1-2 1.5s-.7.6-1.7.3c-1.2-.5-1.4-.3-.8.8.5.8 0 .6-1.2-.4-2.2-1.9-4.1-.8-2.7 1.5.5.8.2.9-1.1.4-1.5-.5-1.6-.4-.5.9.7.8 1.7 1.2 2.4.8.8-.4.7-.2-.1.7-.6.7-.9 1.8-.7 2.5.3.7.1 1.6-.5 2-.7.3-.8 0-.5-.9.4-1 .1-1.6-.7-1.6-.7 0-1 .3-.6.6.3.3.1 1.8-.4 3.3-.8 2-.8 2.3.2 1.4.9-.9 1.8-.9 3.1-.2 1.1.6 2.1.9 2.2.7 1.2-1.5 3.5-9.1 3-9.9-.3-.5 0-.8.7-.7.7.2 1.3-.4 1.4-1.2 0-.8.5-1.5 1.2-1.5.6 0 2.2-1.5 3.5-3.4 1.3-1.9 3-3.5 3.8-3.7.8-.1 2.8-.7 4.4-1.3 2.3-.9 2.6-1.4 1.6-2.6-.7-.8-1.6-1.3-2-1-.5.3-1.1.1-1.5-.5-.4-.6-1-.8-1.5-.5-.5.3-1.3-.3-1.9-1.2-1.3-2.5 1-5.8 2.8-4 1 .9 1.5.9 2.4-.3.7-.8 2-2.1 3-2.9 1.5-1.2 1.7-1.1 1.7.3 0 1-.4 1.5-.9 1.2-.5-.3-1.6.7-2.5 2.2l-1.7 2.7 2-2.4c1.2-1.3 2.1-1.9 2.1-1.5 0 .5.7 0 1.5-1 1.1-1.4 1.5-1.6 1.5-.5 0 1.2.2 1.2 1-.1.8-1.2 1-1.2 1 .5s.2 1.7 1 .5c.9-1.4 1.1-1.3 1.4.9 0 .5.5 1.3.9 1.8.5.4.7.1.5-.7-.1-.8.2-1.4.9-1.3.7.2 1-.4.6-1.3-.5-1.3-.7-1.3-1.4-.2-.5.7-.9.9-.9.5 0-.5.9-2 2-3.4s2-2.1 2-1.5c0 .6.8.9 1.8.8 2.1-.4 5.3 1.5 4.6 2.6-.8 1.2 1.9.5 2.8-.7.4-.6.8-.1.8 1 0 1.8.2 1.7 1.4-.5.8-1.5.9-3 .4-3.7-1.5-2 2.6-2.5 6.4-.9 1.7.8 1.7.9 0 2.5-1 .9-1.2 1.2-.4.7 1-.7 1.3-.6 1.2.5-.1.7-.2 2.2-.1 3.3.1 1.6.3 1.7 1.9.5 1.5-1.3 1.6-1.2.3.4-.8.9-1.1 2-.8 2.4.4.3.1 1.3-.6 2.2-1.1 1.4-1 1.4.5.2 1-.7 1.5-1.8 1.1-2.5-.3-.6-.2-.8.2-.3.5.4 1.7 0 2.7-1 3.2-2.8 2-.4-2.8 5.9-2.9 3.7-4.9 5.6-5.4 4.8-.5-.8-1.1-.6-2 .5-1.1 1.3-1 1.5.4.9 3.3-1.3 1.2 1.3-5.7 7l-7.2 5.9 5.5-5.7c5.4-5.7 5.4-5.7 1.6-3.4-5.6 3.3-10.5 8.7-10.1 10.9.3 1.4-.2 1.9-1.7 1.9-1.2 0-1.9.3-1.5.6.7.8-2.4 4.4-3.9 4.4-.7 0-1.4.4-1.6.9-.1.6-1.5 1.1-2.9 1.3-1.5.2-3.5 1-4.4 1.8-1 .8-1.9 1.3-2.1 1-.1-.3-.6-.2-1 .2s30.4.8 68.5.8H630V504h-5.6c-3.1 0-7.1-.7-9-1.6-3.6-1.7-7.4-6.9-7.4-10.1 0-2.3 2.9-5.3 5.2-5.3.8 0 2.5-.9 3.8-2 2.1-1.8 2.4-3 2.6-11 .3-9.9 1.5-13 6.9-18.1l3.5-3.3-.1-36.1c0-25.3-.4-35.2-1.1-33.3-.5 1.6-1.3 2.8-1.8 2.8s-1.6.7-2.4 1.6c-1.5 1.4-1.6.5-1-10.3.6-13.4 1.9-20.3 4.6-25.1 1.7-3.1 1.8-9.3 1.8-147.6V60.3l-10.7-5.1C606 48.9 583 39.6 574.2 36.8c-24.4-7.5-55.3-14.3-69.6-15.4-4.5-.3-9.4-.7-11.1-.9-6.9-1-41.4-1.3-46.5-.6zm-97 57.9c0 1.9-9 10.6-13 12.5-6.2 3-9.6 9.1-15.9 28.5-7.8 24.2-11.8 41.9-9.6 42.3 1.3.2 1.1.6 13.1-27.1 13.1-30.2 12.8-29.6 16.4-31.5 4.9-2.5 14.3-1.6 16 1.6.7 1.1.5 10.4-.5 26.6-1.5 25.5-1.7 31.7-.8 29.5.2-.6 1.2-1.2 2.2-1.2 1.2 0 2.5-1.8 4-5.4 1.8-4.5 2.8-5.6 5.2-6.1 2.6-.6 8.2.1 10 1.1 1.4.8-6.4 27.3-8.3 28.5-.7.5-3.8.9-6.8.9-8.6 0-10 1.5-10 10.6v7.5l5 2.1c5.4 2.2 6.8 4.6 5.5 9.5-.9 3.6-2 4.3-8 4.3-3.6 0-4.6.3-3.5 1 3 1.9-5.1 1-8.9-1-2-1-6.2-2.7-9.4-3.6-3.2-.8-6-2.1-6.3-2.8-.9-2.3 1.5-6.3 5-8.5 4.1-2.6 5.6-6.6 5.6-15v-5.3l-7.9.3c-6.8.4-8.3.8-10.5 2.8-2.5 2.3-5.6 10.3-5.6 14.3 0 2 3 2.4 4.8.6 1.6-1.6 2.4.9 2 5.8l-.3 3.9-6.5-.1c-3.6 0-10.5-.4-15.5-.9-7.5-.7-8.5-1-5.9-1.7 2.8-.7 6.8-3.8 5-3.8-.4 0-.1-.6.6-1.3.7-.8 2.2-3.9 3.2-7.1 1.7-4.9 1.8-5.9.5-6.7-2-1.4-10.1-.3-15.4 2l-4.5 2 2.6-5c1.3-2.7 2.3-5.3 2-5.7-.9-1.5 3.1-7.1 7.4-10.4 4.2-3.2 4.7-4 7.3-13.3 10-36.1 12.1-42.8 15.2-49.3 1.9-4.1 3.2-7.8 2.9-8.3-.3-.5-1.6-.9-3-.9-3.2 0-3.2-3.3.1-7.6 3.7-4.8 5.7-5.6 18.5-7.5 13.6-2 16-2.2 16-1.1zm-86.7 115.8c.4.1 1.5.2 2.4.3 1.8.1.9 1.6-1 1.6-.7.1-1.1.6-.9 1.3.5 2.5-1.4 1.1-2.5-1.8-.9-2.3-.9-2.8 0-2.3.7.4 1.5.8 2 .9zM137.5 208c.3.5.1 1-.4 1-.6 0-1.1-.5-1.1-1 0-.6.2-1 .4-1 .3 0 .8.4 1.1 1zm362.3 104.5c-.3.3-.9-.2-1.2-1.2-.6-1.4-.5-1.5.5-.6.7.7 1 1.5.7 1.8zm55.9 46.7c-.3.8-.6.5-.6-.6-.1-1.1.2-1.7.5-1.3.3.3.4 1.2.1 1.9zm-2.7 44.4c-1.2 5-2.2 5.6-1.6.9.6-4.9.4-4.5 1.5-4.5.5 0 .5 1.5.1 3.6zM512 507c-.6 1.1-1.3 2-1.6 2-.2 0 0-.9.6-2s1.3-2 1.6-2c.2 0 0 .9-.6 2zm-15.3 21.5c0 .8-.4 1.5-.9 1.5-1 0-1.1-1.4-.1-2.3.9-1 1-.9 1 .8zm-2.7 16.8c0 3.1-.6 6.1-1.5 7.3-.8 1-1.5 1.4-1.5.7 0-.6.4-1.5 1-1.8.5-.3.9-3.1.7-6.1-.1-2.9.1-5.4.5-5.4.5 0 .8 2.4.8 5.3zm14 17.4c0 .5-1.2 2.6-2.5 4.8-2.9 4.6-3.6 2.1-.8-2.6 1.6-2.7 3.3-3.9 3.3-2.2zM497.9 574c0 2.3-.1 2.3-.9.5-.5-1.1-.9-2.9-.9-4-.1-1.7.1-1.7.9-.5.5.8.9 2.6.9 4zm1.8 4.6c-.3.3-1.2.4-1.9.1-.8-.3-.5-.6.6-.6 1.1-.1 1.7.2 1.3.5zm-9.2 36.4c.3.5-.1 1-1 1s-1.3-.5-1-1c.3-.6.8-1 1-1 .2 0 .7.4 1 1zM425 634.7l5.5 1.3-5-.4c-5.9-.5-10.1-2.2-11-4.4-.4-1.1.1-1.1 2.2.4 1.6 1 5.3 2.4 8.3 3.1zm-152 12c-1.1 1.7-1.1 1.7-.6 0 .3-1 .6-2.4.7-3 0-.9.2-.9.5 0 .3.7 0 2-.6 3zm-.9 4.6c-1 .9-1.1.8-.5-.6.3-1 .9-1.5 1.2-1.2.3.3 0 1.1-.7 1.8zm51.4 29.7c1.8.8 1.8.9-.5.9-1.4 0-3.2-.4-4-.9-1.2-.8-1.2-1 .5-.9 1.1 0 2.9.4 4 .9zm211.1 52.8c0 1-.6 1.9-1.3 1.9-.8 0-.9-.6-.2-1.9.5-1 1.1-1.8 1.2-1.8.2 0 .3.8.3 1.8zm13.4.6c0 .3-1.3 1.4-3 2.6-2.4 1.7-2.9 1.8-2.4.5.4-.9 1.6-2.1 2.8-2.5 2.6-1.1 2.6-1.1 2.6-.6zm-56.2 9.7c.3 1.1.1 1.1-.8-.1-.9-1.3-1.1-1.2-.8.5.2 1.1.8 2 1.5 2 .6 0 1.5.4 2 .9.4.5.3.6-.4.2-.6-.3-1.6.2-2.2 1.1-.6 1-1.1 1.2-1.1.5 0-.6.1-1.3.2-1.5.1-.1-.4-1.2-1-2.3-1.2-2.2-.6-3.7 1.2-3.1.5.2 1.1 1 1.4 1.8zm6.6 1.7c.3.5-.1.9-.9.9s-1.2-.4-.9-.9c.3-.4.7-.8.9-.8.2 0 .6.4.9.8z' />
			<path d='M336.2 134.9c-2.3 4.9-5.6 12.4-7.3 16.8-1.7 4.3-3.3 8.1-3.6 8.5-.2.5 2.5.8 6.1.8 5.6 0 6.7-.3 7.6-2.1 1.1-1.9 2.6-32.9 1.7-32.9-.2 0-2.3 4-4.5 8.9zM346.8 211.7c.7.3 1.6.2 1.9-.1.4-.3-.2-.6-1.3-.5-1.1 0-1.4.3-.6.6zM269.4 160.5c-.3 1.9-1.1 3.5-1.8 3.5-.6 0-.4.4.4 1 1.9 1.2 2 1 2.6-3.9.6-5-.3-5.5-1.2-.6zM259.9 304.2c-2.1 2.4-3.9 5.2-3.9 6.4 0 4 5.9 7.9 18.5 12.2 6.6 2.3 14.3 4.6 17.1 5.2 6 1.3 13.4 7 11.2 8.6-.7.6-6 1.1-11.8 1.3-17.3.4-34.2 4.7-37.5 9.4-1.8 2.6-2 8.3-.3 9.3.6.4 1.4.2 1.6-.4.5-1.7 3.7-1.5 7.4.6 5.9 3.2 14.1 4.5 20.5 3.2 4.7-1 6.6-2 9.6-5.2 3.4-3.5 4-3.8 5-2.4.7.9 4.4 2.5 8.2 3.5 3.9 1.1 7.8 2.3 8.9 2.7 1.6.6 1.8.3 1.2-2.7-.3-1.9-.3-2.8 0-2.2.3.7.9 1.3 1.4 1.3.9 0 3.2-14.4 2.9-18.5-.4-5 .1-9.6.9-9.1 1 .6.9 1 1.6-11.9.5-9.7.5-9.8-.8-5-2.1 7.9-4.3 11.7-6.4 10.6-.9-.5-3.7-1.6-6.2-2.5-2.5-.9-7.2-4-10.4-6.8-4.1-3.6-6.6-5.2-8.2-5-1.2.2-3.6-.4-5.3-1.2-1.7-.9-6.1-2.3-9.8-3.1-3.7-.9-7.8-1.8-9.1-2.1-1.8-.4-3.2.5-6.3 3.8zM491.6 312.2c.3.5 1 .6 1.5.3 1.3-.9 1.1-1.2-.6-1.2-.8 0-1.2.4-.9.9zM462.9 314.2c-.1 1.7-.3 1.8-.6.5-.6-2.1-1.4-2.1-3.9-.1-1.8 1.5-1.8 1.5.4 1 2.3-.4 2.3-.4.6 1.5-2 2.2-2.9 2.5-1.8.6.4-.6-.2-.3-1.3.8s-1.8 2.4-1.5 2.9c.2.4.7.4 1.1-.1.3-.6 1.8-1.3 3.4-1.7 1.5-.3 2.7-1.1 2.7-1.6 0-.6.7-1 1.5-1s1.5-.9 1.5-1.9c0-2.8-2-3.7-2.1-.9zM444.8 315.7c.7.3 1.6.2 1.9-.1.4-.3-.2-.6-1.3-.5-1.1 0-1.4.3-.6.6zM450.5 316.7c-3 .7-4.3 2.3-1.8 2.3 1.1 0 2.6-.7 3.3-1.5.7-.8 1.1-1.4.9-1.4-.2.1-1.3.3-2.4.6zM534.5 352.9c-.6 1 .1 1.6 5.3 4.2 3 1.6 3.2 1.6 3.2-.2 0-1-.9-2.3-2-2.9-1.5-.8-2-.8-2 .2 0 .9-.3.9-1-.2s-1-1.1-1-.2c0 .7-.5 1-1 .7-.6-.4-.8-1.1-.5-1.6.4-.5.4-.9.1-.9-.3 0-.7.4-1.1.9zM531.7 355.1c.7.7 1.5 1 1.8.7.3-.3-.2-.9-1.2-1.2-1.4-.6-1.5-.5-.6.5zM349.8 359.7c-1.9.5-2.6 6.3-.8 6.3.6 0 1-.5 1-1 0-.6.6-1 1.4-1 1.4 0 2.5 2.8 2.7 7l.1 2.5.8-2.5c.5-1.7.8-1.9.9-.8.1 2.4 2.1 2.3 2.1-.1 0-1.1-.9-2.2-2-2.6-1.4-.4-1.9-1.4-1.7-3.6.1-1.6.7-2.9 1.2-2.9.6 0 .3-.5-.5-1-1.1-.7-1.7-.4-2.2 1-.4 1.1-1.2 2-1.8 2-.8 0-.8-.6 0-2 .6-1.1.9-1.9.8-1.9-.2.1-1.1.3-2 .6z' />
			<path d='M356.7 361.5c-.4.8-.2 1.7.3 2 .6.4 1-.3 1-1.4 0-2.5-.6-2.7-1.3-.6zM344.9 400c-.1.3-.1.9 0 1.4.1.5-.7.6-1.9.3-1.1-.3-2-.1-2 .5 0 .5-.4.6-1 .3-.5-.3-1-.2-1 .3 0 .9-5.7 3.6-7.1 3.4-.3-.1-2.1 1.1-3.8 2.6-3.6 3-6.7 11.7-4.9 13.9.5.7.8 1.6.5 2-.3.4.1 1.3.8 2 1.1 1 1.5 1 1.8 0 .4-.9.6-.9.6 0 .1.7.6 1.3 1.1 1.3.6 0 2.1 1.1 3.4 2.5 1.3 1.3 2.6 2.2 2.9 1.8.4-.3.7-.1.7.5 0 .7 1 1.2 2.3 1.2 1.2 0 3.3.8 4.6 1.7 1.4.9 2.1 1.1 1.7.4-.9-1.4 2.5.3 5.7 2.8 1.3 1.1 1.7 1.1 1.7.1s.3-1 1.5 0c.8.7 1.5.9 1.5.6 0-.4.9-.2 2.1.4 1.1.7 1.8 1.4 1.5 1.7-.3.4-.1 1.3.6 2 1.6 2 1.6 12.2 0 13.2-.7.4-10 .6-20.7.4-21.6-.4-23.4-.1-31.1 6.2-5.1 4.2-7.9 5.3-11.9 4.8-3.8-.5-9.2-3.9-10.6-6.5-.6-1.1-1.3-1.7-1.6-1.4-.7.7 5.2 8.4 8.1 10.6 2.5 1.9 10.1 6.4 14.6 8.7 5.4 2.6 12.5 2.3 19.3-1 10.3-5 22.5-6.3 38.5-4.2 3.8.5 5.8.3 6.9-.7 1.4-1.1 1.6-1.1.8.2s-.6 1.3.8.1c.9-.7 1.4-1.8 1.1-2.3-.3-.5.4-1.2 1.6-1.5 1.3-.3 1.9-1.1 1.6-2-.3-.8-.2-1.2.3-.9.5.3.7-1.8.5-4.7-.5-9.5-.4-15.2.2-18.4.7-3.4-3.1-12.3-6.6-15.5-1-1-2.2-2.3-2.7-3-1.1-1.8-5.8-5.6-4.9-4.1 1 1.8-.5 1.5-2.9-.5-2.8-2.4-6.8-8-8.8-12.5-1.7-3.7-1.7-3.8.3-2.7 1.6.8 1.8.8 1.4-.4-.3-.8-1.2-1.7-2-2-.9-.3-1.2-1-.9-1.6.3-.5.1-1-.5-1s-.9-.4-.6-.8c.2-.4-.4-.8-1.5-.8-1 0-2 .3-2 .6zm6.6 67c.4.6-1.7 2.1-4.7 3.5-5.8 2.6-15.8 4.4-15.8 2.8 0-1 12.4-5.9 17-6.6 1.4-.2 2.6-.5 2.7-.6.1 0 .5.4.8.9zM521.3 409.7c-.3 1-.8 2.2-1 2.8-.3.5.3.1 1.1-.9 1.6-2 2.1-3.6 1.1-3.6-.3 0-.8.8-1.2 1.7zM535.1 437.6c0 1.1.3 1.4.6.6.3-.7.2-1.6-.1-1.9-.3-.4-.6.2-.5 1.3zM500.6 480.5c-.3.9-.6 3.1-.5 4.8.1 2.8.2 2.6 1-1.2.9-4.6.6-6.5-.5-3.6zM510.1 480.6c0 1.1.3 1.4.6.6.3-.7.2-1.6-.1-1.9-.3-.4-.6.2-.5 1.3zM299.5 489.2c-.5 2.7-.8 3-1.4 1.5-.6-1.6-.9-1.6-1.8-.5-.5.7-1.3 2.6-1.7 4.3-.6 2.9-.6 2.9 1 1 .8-1.1 1.9-1.9 2.4-1.8 1.1.3 3-2.9 3.5-5.8.7-3.3-1.2-2.1-2 1.3zM264.5 513.4c-.8 7.6.2 11.7 3.6 13.3 1.3.7 4.2 3.5 6.4 6.2 2.2 2.8 4.3 5.1 4.7 5.1.5 0 .8.6.8 1.3 0 1.4 3.8 5.4 4.6 4.9.2-.1.7-.1 1.2 0 2.4.5 41.7 1.2 50.5.9 1.6-.1 2.6-.5 2.2-1.1-.3-.6-.1-1 .5-1s1.3.6 1.6 1.4c.7 1.9 10.5 3 25.9 3 11.6-.1 13.9-.4 21.5-3 8.8-2.9 19.4-3.9 23.5-2 1.1.5 3.1 1.1 4.4 1.3 1.4.2 3.7 1.5 5.3 2.8l2.9 2.4 2.5-2.2c2.2-1.8 2.5-2.8 2-5.8-.7-4.6-4.2-12.4-5.6-12.5-2.3-.3-2.4-.5-1.2-1.2.9-.7.7-1.3-.9-2.8-1.3-1-1.9-1.4-1.5-.7.3.7-1.9-.5-5.1-2.7-3.2-2.1-6-3.7-6.2-3.4-.2.2-1.4-.2-2.5-.9-2.8-1.8-8.6-3.8-8.6-2.9 0 .4.9 1.3 2 2 1.2.7 1.8 1.7 1.4 2.3-.4.7-1 .6-1.9-.1-.8-.7-1.8-.9-2.3-.6-.5.3-2.3-.4-4-1.5L389 514l1.6 2.6c1.1 1.6 1.4 2.8.7 3.2-.5.4-1.3 1.9-1.7 3.4-.4 1.9-1.5 2.9-3.4 3.4-4.7 1-5.4 1.4-4.9 2.7.3.8-.3 1.4-1.6 1.4-1.1.1-2.3.7-2.7 1.3-.4.6-1.7 1.2-2.8 1.3-1.2.1-2.2.4-2.2.7 0 .3-1.7.7-3.7.8-6.2.4-11.6 1.3-13.5 2.3-2.2 1.2-22.3.8-20.5-.3.7-.5.2-.6-1.3-.3-6.1 1.4-21.5 2.2-22.9 1.1-.8-.6-1.6-1-1.8-.9-.9.7-3.4.2-2.9-.5.3-.5 0-.9-.7-1-4.4-.6-5.7-.9-6.3-1.4-.3-.4-1.2-.4-2-.1-.9.3-1.4-.2-1.5-1.3 0-1.1-.3-1.4-.5-.7-.4.9-1.3.9-3.1.2-1.3-.5-2.9-.6-3.5-.3-.7.4-.8.2-.4-.4 1-1.6-1.6-1.5-3.3 0-1.1 1-1.3 1-.7 0 .5-.8-.2-1.2-2.3-1.2-4.6 0-9.4-5.4-12-13.4-1.1-3.6-2.1-7.2-2.1-8.1 0-.8-.4-1.5-.9-1.5s-1.3 2.9-1.6 6.4zm62.8 27.3c-.7.2-1.9.2-2.5 0-.7-.3-.2-.5 1.2-.5s1.9.2 1.3.5zM420.6 513.5c.4.8 1.1 1.5 1.6 1.5.6 0 .5-.6-.2-1.5-.7-.8-1.4-1.5-1.6-1.5-.2 0-.1.7.2 1.5zM429.5 517c.3.5.1 1-.5 1s-.9.4-.5.9c.3.5.1 1.3-.5 1.6-.8.5-.8 1.1-.1 1.9.6.7.8 1.6.4 1.9-.3.4-.2.7.4.7.6 0 1.8 1.8 2.7 4 1.7 4.2 2.2 4.9 2.3 2.7 0-.6.4-2 .8-3 .5-1.2.2-1.7-1-1.7-.9 0-1.4-.4-1.1-.9.4-.5 0-1.2-.6-1.4-.7-.3-.3-.6 1-.6l2.2-.1-2-4c-1.1-2.2-2.5-4-3.1-4-.6 0-.7.4-.4 1zm2.5 3.8c0 .5-.7.9-1.5.9s-1.2-.4-.9-.9c.3-.4.9-.8 1.5-.8.5 0 .9.4.9.8zM487.6 529.7c-.6 1.4-.5 1.5.5.6.7-.7 1-1.5.7-1.8-.3-.3-.9.2-1.2 1.2zM474 544c0 1.2 7.3 5 9.6 5 1.6 0 1.6-.2-.2-1.9-1-1-2-1.7-2.2-1.6-.2.2-1.9-.3-3.8-1.1-2-.8-3.4-1-3.4-.4zM471.3 545.5c0 .8.5 1.1 1 .8.6-.4.8.3.4 1.6-.4 1.5 0 2.4 1.1 2.9.9.3 3.8 1.8 6.4 3.3 2.6 1.6 5 2.4 5.3 1.9.7-1.1-3-4.7-7-6.7-1.6-.9-3.2-1.9-3.5-2.2-.3-.3-1.2-1.2-2.1-1.8-1.3-1-1.6-1-1.6.2zM469.9 556.3c1.2 1.6 7 3.7 9.9 3.7 2.2 0-.9-2.6-3.8-3.3-1.4-.3-3.6-.9-5-1.3-2.2-.7-2.4-.6-1.1.9zM456 569.4c0 1 13.3 8.7 14.3 8.2.7-.2.5-.5-.4-.5-.8-.1-2.6-1.3-4-2.7-3.2-3.5-9.9-6.8-9.9-5zM299.1 574.3c-1.2 3.7-1.2 9.5.1 10.3.5.3.6 1 .3 1.5-.4.5-.1.9.5.9s1.8 1.6 2.6 3.5c1.8 4.5 2.4 4.4 1.9-.3-.3-2-.2-2.8.1-1.7.4 1.1.9 2.4 1.4 3 .4.5 1.3 3.2 2 5.8 1 3.6 1.7 4.7 2.9 4.4 4.4-1.2 4.6-1.2 4.9 1.6.2 1.5 1.2 3.3 2.3 4 1.3.8 1.9 2.3 1.9 4.7.1 3.4 2.9 9 3.1 5.9 0-.8.4-.6.8.6.7 1.8 1 1.6 2.4-1.8.9-2 2-3.7 2.5-3.7.6 0 1.3-1.7 1.7-3.7.6-3.6.7-3.7 1.9-1.6 1.3 2.5 2.3 2.1 5-2.1 1.1-1.8 1.3-2.5.5-2-1.2.6-1.2.5-.1-.8.7-.9 1.4-3.1 1.4-4.8.1-4.3 1.5-2.5 2.6 3.5l1 5 .2-5c.1-2.8.5-5.8.9-6.8.6-1.7.8-1.7 2.5.2 1.1 1.2 2.8 2.1 3.9 2.1 1.9 0 1.8-.3-.9-3.1l-2.9-3.2 3.9 2.6c4.7 3.1 7 2.6 6.2-1.4-.6-3.3 1.7-6.3 4.4-5.4.9.3 2.5.3 3.4-.1 1.5-.6 1.4-.9-.5-4-1.1-1.9-1.7-3.4-1.3-3.4 1.4 0-2.7-3.8-4.7-4.3-1-.3-1.9-.3-1.9 0 0 1 2.4 4.9 3.9 6.1.9.8 1 1.1.4.7-.7-.3-1.3-.1-1.3.5s-1.2-.2-2.6-1.9c-1.4-1.7-3-2.9-3.4-2.6-.5.3-1.1-.3-1.3-1.2-.4-1.7-.5-1.7-.6 0-.1 1.6-.3 1.6-2.6.1-3.3-2.2-4.1-.2-2 4.9 1.8 4.3 1.9 5.7.4 5.7-.5 0-.8-.4-.4-.9.3-.5.1-1.2-.5-1.6-.6-.4-.8-1-.5-1.5.3-.4-.5-1-1.7-1.3-1.5-.4-1.8-.3-1 .5.7.7.7 1.4-.1 2.3-.9.9-1.8.2-4-3.2-1.6-2.4-4-4.6-5.3-4.9-1.3-.3-2.1-1.1-1.7-1.7.3-.6.1-.7-.5-.3-.6.4-5.2.1-10.3-.5-8.6-1.1-9.3-1.1-10.7.7-1.2 1.5-1.4 1.6-.9.2.4-1.2.2-1.5-.9-1.1-.8.3-1.4 2-1.5 4.2l-.1 3.6-1.2-3.9c-.7-2.2-2.2-4.6-3.3-5.3-2-1.3-2.2-1.2-3.2 2zm50.4 3.7c.4.6 1.6 1 2.7.8 1.2-.2 2.3.3 2.6 1.1.3.8 0 1.1-.7.7-.6-.4-1.1-.1-1.1.8s.9 1.6 2 1.6c2.2 0 2.9 3.5.9 4.2-1.5.5-1.8 5.1-.4 6 .7.5.6.8-.1.8-.6 0-1.9-.9-2.9-2s-1.3-2-.7-2c.6 0 1.3.6 1.5 1.2.4 1 .6 1 .6 0 .1-.7-.6-1.5-1.4-1.8-.8-.4-1.5-1.4-1.5-2.3 0-1.4.2-1.4 1-.1.7 1 1 1.1 1 .2 0-.7-.6-1.5-1.4-1.8-.8-.3-1.8-1.9-2.1-3.5-.4-1.6-1.1-2.7-1.6-2.3-.5.3-.9-.2-.9-1 0-1.8 1.6-2.1 2.5-.6zM402 573c.8.5 2.2 1 3 1 1.3 0 1.3-.1 0-1-.8-.5-2.2-1-3-1-1.3 0-1.3.1 0 1zM392.5 582c.3.5 1.4 1 2.3 1 1.5 0 1.5-.2.2-1-2-1.3-3.3-1.3-2.5 0zM403.6 582.8c-.3.5.1 1.5.9 2.2 2.1 1.7 2.7.9 1-1.3-.7-1-1.6-1.4-1.9-.9zM398.5 584.9c-.3.5-.2 1.2.3 1.5.5.3.9-.1.9-.9 0-1.7-.3-1.9-1.2-.6zM392.5 587c.3.5.8 1 1.1 1 .2 0 .4-.5.4-1 0-.6-.5-1-1.1-1-.5 0-.7.4-.4 1zM465.5 588c1 1.1 2 2 2.2 2 .2 0-.2-.9-.9-2s-1.7-2-2.2-2c-.5 0-.1.9.9 2zM471.7 588.2c1.6 1.8 5.8 2.4 6.7 1 1-1.7-1.1-3.1-4.6-2.9-3.4.2-3.5.3-2.1 1.9zM402 588c2 1.3 3.3 1.3 2.5 0-.3-.6-1.4-1-2.3-1-1.5 0-1.5.2-.2 1zM398.5 590c.3.5 1.6 1 2.8.9 2.1 0 2.1-.1.2-.9-2.8-1.2-3.7-1.2-3 0zM468.7 590.4c-.3.8.1 1.7.9 2 .8.3 1.4 1.3 1.4 2.2 0 1.2.3 1.4 1.3.6.8-.7 1.9-.5 3.6.9 1.3 1 1.9 1.9 1.3 1.9-.6 0-.8.9-.5 1.9.4 1.6.8 1.7 1.8.8.7-.7 1.1-1.5.8-1.9-.2-.4.3-.5 1.2-.2 1.4.6 1.4.8-.2 2-1.6 1.2-1.6 1.3-.2 1.4 3.3 0 2.9-2.9-.7-5.7-1.9-1.6-4.7-3.8-6-5.1-2.9-2.6-4-2.8-4.7-.8zM357 598.9c0 1.9 1.8 4.5 6.8 9.9 1.3 1.3 2.5 3.2 2.7 4.2.6 3.3 7.6 12 9.6 12 1 0 1.9-.5 1.9-1.1 0-.5-.4-.7-1-.4-.5.3-1 0-1-.7 0-1 1-1.3 3.3-1 2.1.2 3.8-.2 4.6-1.2 1.1-1.3.7-1.6-2.8-2.6-4.5-1.2-9.8-5.9-14.7-13-1.7-2.5-4.5-5.3-6.2-6.3-3.1-1.8-3.2-1.8-3.2.2zM454.9 597.9c.8.5.9 1 .3 1.2-1.6.6 3.1 5.5 7.4 7.8 2.3 1.3 5.7 2.1 8.4 2.1 4.5-.1 4.5-.1 2-1.6s-2.5-1.5 1-.9c10.6 1.9 10.9 1.8 4-1.8-3.6-1.9-8.3-4.3-10.5-5.5-3.8-2.1-15.9-3.3-12.6-1.3zM434.6 604.8c-.7 1.2.4 5.2 1.4 5.2.5 0 .8-1.4.8-3-.1-2.9-1.1-3.9-2.2-2.2zM438 608.5c0 .8.4 1.5.8 1.5.5 0 .9-.7.9-1.5s-.4-1.5-.9-1.5c-.4 0-.8.7-.8 1.5zM367 630c0 .8.5 2.2 1 3 .9 1.3 1 1.3 1 0 0-.8-.5-2.2-1-3-.9-1.3-1-1.3-1 0zM364 631.5c0 1.1.5 2.7 1 3.5.8 1.2 1 1.2 1-.5 0-1.1-.5-2.7-1-3.5-.8-1.2-1-1.2-1 .5zM321.6 664.2c-1.5 4.8-1.3 6.9 1.2 8.8 2.7 2.2 4.2 1.9 2.4-.3-.6-.7-1.2-3-1.4-5.1-.2-3.8-1.5-5.8-2.2-3.4zM344.6 664.6c-1 2.5-.7 9.4.4 9.4.6 0 1-2.5 1-5.5 0-5.7-.3-6.6-1.4-3.9zM368.7 663.7c-.3.4-.8 2.6-1.2 4.8-.6 3.7-.6 3.8.7 2 .8-1.1 1.7-2.7 2-3.6.7-1.8-.6-4.6-1.5-3.2zM267.6 665.7c-.6 1.4-.5 1.5.5.6.7-.7 1-1.5.7-1.8-.3-.3-.9.2-1.2 1.2zM253.2 692.5c-1 2.1-1 2.5 0 1.9 1-.6 1-.5.1.7-2.1 2.6-4.3 9.8-3.2 10.5.5.3.7 1.5.3 2.7-1.3 4.6 1.5.1 4-6.4 2.6-6.6 3.4-11.5 1.7-10.5-.5.4-1.1.1-1.3-.5-.2-.6-.9.1-1.6 1.6zM254 705.9c-.6 2.2-2.6 6.3-4.5 9.1-3.8 5.7-4.4 7-1.9 4.6 2.5-2.5 4-1.8 1.6.7-1.2 1.3-2.2 2.8-2.2 3.4 0 .6-.6 1.4-1.2 1.7-1 .3-.9.8.2 1.8 1.7 1.4 1.6 3.9-.2 7.5-.6 1.3-.8 2.6-.5 3 .4.3.7-.1.7-1.1 0-1.4.3-1.4 1.3-.4.8.7 1.4 1.7 1.5 2.3.7 7.7.7 10.5-.2 10.9-1.7.7 1.3 2.4 3.3 1.9 1.4-.4 1.6.6 1.3 7.6l-.4 8.1h2.6c2.9 0 3.5 2 1.1 4-1.9 1.6-1.9 3.4 0 5.4 1.3 1.3 1.2 1.5-1.2 1.9-1.6.2 3.1.4 10.2.4 7.2 0 11.9-.2 10.5-.6-2.9-.7-3.1-1.2-4.1-10.6-1.3-11.9-2-14.9-3.1-13.4-.6 1-.8.1-.4-2.6.2-2.2.2-3.2 0-2.3-.8 2.7-2.1 2.2-2.7-1-.6-3.2 0-4.3 1.3-2.2 1.4 2.2 1.2.4-.4-3.5-.8-1.9-1.9-3.5-2.4-3.5s-1.5-2.7-2.1-6c-.7-3.3-1.6-5.8-2.1-5.5-.5.3-1-.5-1.2-1.7-.2-1.7-1-2.3-2.8-2.3-1.6 0-2.4-.5-2.4-1.5.2-2.2 1.1-6.2 1.9-8.5.7-2 .6-2-.9-.1-.9 1.1-1.8 1.7-2.1 1.5-.3-.3.3-1.4 1.3-2.5 1.6-1.7 3.1-10.4 1.8-10.4-.3 0-1 1.8-1.6 3.9zm0 23.3c0 1-.6 1.8-1.3 1.8-.7 0-1.8 1.2-2.4 2.7l-1.1 2.8-.1-3.6c-.1-1.9.4-4 .9-4.5 1.7-1.7 4-1.2 4 .8zm15 35.1c0 1.5-2.9 5.7-3 4.2 0-.6.3-2 .6-3.3.7-2.4 2.4-3.1 2.4-.9zm.4 7.9c-.3.4-.1.8.4.8s1.2.9 1.5 2c.8 3-.9 2.4-2.5-.8-1.5-3-1.3-6.6.3-4.1.4.7.5 1.7.3 2.1zM526 731.4c1.2 1.2 1.3 3.9.1 3.2-1.1-.7-.8 2.1.4 3.1.4.4.5.3.1-.4-.3-.6-.2-1.4.4-1.8 1.4-.9.8-5.2-.7-5.2-1 0-1 .4-.3 1.1zM529 731c0 .5.5 1 1.1 1 .5 0 .7-.5.4-1-.3-.6-.8-1-1.1-1-.2 0-.4.4-.4 1zM511.5 733.9c-.3.5-.2 1.2.3 1.5.5.3.9-.1.9-.9 0-1.7-.3-1.9-1.2-.6zM530.3 738.4c.3.7 0 2-.6 2.7-1 1.1-.9 1.1.5 0 1.5-1.1 1.5-4.1.1-4.1-.3 0-.3.6 0 1.4z' />
			<path d='M246 740.5c0 .8.2 1.5.4 1.5s.6-.7 1-1.5c.3-.8.1-1.5-.4-1.5-.6 0-1 .7-1 1.5zM244 741.9c0 .6.4 1.3 1 1.6.6.3.7-.1.4-.9-.7-1.8-1.4-2.1-1.4-.7zM519 743.1c0 .5.5.7 1 .4.6-.3 1-.8 1-1.1 0-.2-.4-.4-1-.4-.5 0-1 .5-1 1.1zM483.3 750.2c-1.5 2-2.5 3.8-2 3.8.3 0 1.2-1.1 2.1-2.5 1.7-2.6 1.6-3.5-.1-1.3zM217.1 757.6c-.1.6-2.7 2.7-5.8 4.7-3.2 2-9.3 6.5-13.7 10.1-6.7 5.7-7.4 6.6-5.3 6.6 1.4 0 2.8-.4 3.2-1 .4-.6 1.5-.6 3.1 0 3.4 1.3 20.1 1.3 20.9 0 .4-.6.9-5.4 1.2-10.7.5-8.5.4-9.6-1-9-.9.3-1.8.1-2.1-.6-.3-.8-.5-.8-.5-.1zm2.5 3.8c-.4 2.5-2.2 3.2-3 1.1-.8-2.1-.1-3.2 1.8-3.2 1 0 1.4.8 1.2 2.1zm-17.2 11.1c-.4.8-.1 1.5.5 1.5s1.1.5 1.1 1.1c0 .5-.4.8-.9.4-.5-.3-1.2-.1-1.6.5-1.1 1.8-4.7 1.2-4.3-.7.2-1 1.1-1.7 2-1.5.9.1 1.8-.4 2.2-1.3.3-.8.8-1.5 1-1.5.3 0 .3.7 0 1.5zM467 765.5c-.7.8-.9 1.5-.5 1.5.5 0 0 1-1.1 2.2-1.9 2.1-1.9 2.1 0 1.4 1.5-.5 1.7-.4.7.8-.8 1-.9 1.6-.1 2.1.5.3 1 .3 1-.2 0-.4.5-.1 1 .7.7 1 .8.1.4-2.9-.5-3.5-.3-4.2.7-3.5 1.1.6 1.2.5.2-.8-.7-.8-1-1.8-.6-2.1.3-.4.4-.7.1-.7-.3 0-1.1.7-1.8 1.5zM223 769.7c0 2.3-.4 5.3-1 6.7l-1 2.6 8.3-.1c6.8-.1 7.7-.2 5.2-1.1-1.6-.5-3.9-1-5-1.1-1.4-.1-2.6-1.8-4.2-5.7l-2.2-5.5-.1 4.2zM489.3 768.3c-.4.7-.8 2-.9 2.9-.3 3.1-.4 3.3-1.4 1.8-.7-1.2-.9-1.1-.8.6.2 1.5.7 2 2 1.6 1-.2 1.6-.8 1.3-1.2-.3-.5-.1-1.1.5-1.5.6-.4.8-1 .5-1.5-.3-.5.3-.7 1.4-.5 1.4.2 1.8-.1 1.5-1-.8-1.9-3.2-2.6-4.1-1.2zM460 778c0 .5.9.8 2 .7 2.1-.1 1.8-1-.5-1.3-.8-.1-1.5.2-1.5.6zM346.8 778.7c2.3.2 5.9.2 8 0 2-.2.1-.4-4.3-.4-4.4 0-6.1.2-3.7.4z' />
		</symbol>
	</defs>
</svg>